<svg xmlns:svg="http://www.w3.org/2000/svg" xmlns="http://www.w3.org/2000/svg" viewBox="0 0 1066.7 800" height="800" width="1066.7" xml:space="preserve" id="svg2" version="1.1"><style>.s0{fill-rule:nonzero;fill:#ffd2b0;}.s1{opacity:1;}.s2{fill-rule:nonzero;fill:#000;}.s3{fill:none;stroke-miterlimit:10;stroke-width:10;stroke:#000;}.s4{fill-rule:nonzero;fill:#0d0d0d;}.s5{fill-rule:nonzero;fill:#dbae87;}.s6{fill-rule:nonzero;fill:#fff;}.s7{fill-rule:nonzero;fill:#333;}.s8{fill-rule:nonzero;fill:#0a0d0b;stroke-miterlimit:10;stroke-width:3;stroke:#000;}.s9{fill:none;stroke-miterlimit:10;stroke-width:2;stroke:#000;}.s10{fill:none;stroke-miterlimit:10;stroke:#000;}</style><metadata id="metadata8"/><defs id="defs6"><clipPath id="clipPath18" clipPathUnits="userSpaceOnUse"><path id="path16" d="M0 600H800V0H0Z"/></clipPath><clipPath id="clipPath38" clipPathUnits="userSpaceOnUse"><path id="path36" d="M370.4 323.7H488.3V282.4H370.4Z"/></clipPath><clipPath id="clipPath62" clipPathUnits="userSpaceOnUse"><path id="path60" d="m416 350.2h74.2v-70.7h-74.2z"/></clipPath><clipPath id="clipPath78" clipPathUnits="userSpaceOnUse"><path id="path76" d="M269.9 204.5H372.5V114.6H269.9Z"/></clipPath><clipPath id="clipPath98" clipPathUnits="userSpaceOnUse"><path id="path96" d="M351.7 207.9H476.2V126.1H351.7Z"/></clipPath><clipPath id="clipPath158" clipPathUnits="userSpaceOnUse"><path id="path156" d="m252.1 347.8h86.4v-68.8h-86.4z"/></clipPath><clipPath id="clipPath186" clipPathUnits="userSpaceOnUse"><path id="path184" d="m305.8 291.6c-13.5-0.3-20.9-8-20.9-8v0c0 0 6.3-5.4 20.6-5.9v0c16.3-0.5 28.4 3.6 28.4 3.6v0c0 0-9.2 10.3-27.2 10.3v0c-0.3 0-0.6 0-1 0"/></clipPath><clipPath id="clipPath218" clipPathUnits="userSpaceOnUse"><path id="path216" d="M0 600H800V0H0Z"/></clipPath><clipPath id="clipPath238" clipPathUnits="userSpaceOnUse"><path id="path236" d="m433.3 290.6c-15.5-0.5-25.6-10.5-25.6-10.5v0c0 0 13-2.6 26.6-2.2v0c14.9 0.4 26 4 26 4v0c0 0-10.9 8.8-25.8 8.8v0c-0.4 0-0.8 0-1.2 0"/></clipPath><clipPath id="clipPath270" clipPathUnits="userSpaceOnUse"><path id="path268" d="M0 600H800V0H0Z"/></clipPath><clipPath id="clipPath330" clipPathUnits="userSpaceOnUse"><path id="path328" d="M0 600H800V0H0Z"/></clipPath><clipPath id="clipPath342" clipPathUnits="userSpaceOnUse"><path id="path340" d="m535.8 237.3h71.6v-89h-71.6z"/></clipPath><clipPath id="clipPath378" clipPathUnits="userSpaceOnUse"><path id="path376" d="M393.5 313.4H482.3V295.3h-88.7z"/></clipPath><clipPath id="clipPath398" clipPathUnits="userSpaceOnUse"><path id="path396" d="m420.5 335h63.6V291.8H420.5Z"/></clipPath><clipPath id="clipPath422" clipPathUnits="userSpaceOnUse"><path id="path420" d="m590.3 278.4h31.6v-68.1h-31.6z"/></clipPath><clipPath id="clipPath438" clipPathUnits="userSpaceOnUse"><path id="path436" d="m526.7 281.9h64.9v-84.1h-64.9z"/></clipPath><clipPath id="clipPath454" clipPathUnits="userSpaceOnUse"><path id="path452" d="m427.1 496.3h201V305.1h-201z"/></clipPath><clipPath id="clipPath470" clipPathUnits="userSpaceOnUse"><path id="path468" d="M228.3 568H534.1V328.1H228.3Z"/></clipPath><clipPath id="clipPath486" clipPathUnits="userSpaceOnUse"><path id="path484" d="m221 380.2h39.6V183.8h-39.6z"/></clipPath><clipPath id="clipPath502" clipPathUnits="userSpaceOnUse"><path id="path500" d="m293 189.5h73.8v-34h-73.8z"/></clipPath><clipPath id="clipPath518" clipPathUnits="userSpaceOnUse"><path id="path516" d="m369.7 192.9h95.8v-40.7h-95.8z"/></clipPath><clipPath id="clipPath566" clipPathUnits="userSpaceOnUse"><path id="path564" d="m266 318.5h59.2V297.5H266Z"/></clipPath><clipPath id="clipPath586" clipPathUnits="userSpaceOnUse"><path id="path584" d="m305.8 291.6c-13.5-0.3-20.9-8-20.9-8v0c0 0 6.3-5.4 20.6-5.9v0c16.3-0.5 28.4 3.6 28.4 3.6v0c0 0-9.2 10.3-27.2 10.3v0c-0.3 0-0.6 0-1 0"/></clipPath><clipPath id="clipPath606" clipPathUnits="userSpaceOnUse"><path id="path604" d="M0 600H800V0H0Z"/></clipPath><clipPath id="clipPath618" clipPathUnits="userSpaceOnUse"><path id="path616" d="m433.3 290.6c-15.5-0.5-25.6-10.5-25.6-10.5v0c0 0 13-2.6 26.6-2.2v0c14.9 0.4 26 4 26 4v0c0 0-10.9 8.8-25.8 8.8v0c-0.4 0-0.8 0-1.2 0"/></clipPath><clipPath id="clipPath638" clipPathUnits="userSpaceOnUse"><path id="path636" d="M0 600H800V0H0Z"/></clipPath></defs><g transform="matrix(1.3333333,0,0,-1.3333333,0,800)" id="g10"><g id="g12"><g clip-path="url(#clipPath18)" id="g14"><g transform="translate(552.334,202.666)" id="g20"><path id="path22" d="M0 0C0 0 15.7-0.7 28 6.7 40.3 14 52.3 34 52.3 34L58 64.3 59.7 105.7 46.3 126l-11.7 5.7-23-14.3" style="fill-rule:nonzero;fill:#ffd2b0;stroke-miterlimit:4;stroke-width:10;stroke:#000"/></g><g transform="translate(253.6665,198.333)" id="g24"><path id="path26" d="m0 0c0 0 0.1-29.9 3.7-44 4.7-18.7 25.3-43.7 33-54.7 13-18.7 19-66.3 74.7-75 55.7-8.7 88.7 29.3 107.7 48.3 19 19 57.7 44.3 69.7 72 12 27.7 17.3 59.7 15.3 79.7-2 20 1.3 59.8 1.3 59.8l-12.7 101.2c0 0-80.7 45.3-84 47.3-3.3 2-77.3 31.3-82.7 32.7-5.3 1.3-58 4.7-58 4.7 0 0-67.3-58.7-67.3-60.7 0-2-11.3-128-11.3-128z" class="s0"/></g><g transform="translate(253.6665,198.333)" id="g28"><path id="path30" d="m0 0c0 0 0.1-29.9 3.7-44 4.7-18.7 25.3-43.7 33-54.7 13-18.7 19-66.3 74.7-75 55.7-8.7 88.7 29.3 107.7 48.3 19 19 57.7 44.3 69.7 72 12 27.7 17.3 59.7 15.3 79.7-2 20 1.3 59.8 1.3 59.8l-12.7 101.2c0 0-80.7 45.3-84 47.3-3.3 2-77.3 31.3-82.7 32.7-5.3 1.3-58 4.7-58 4.7 0 0-67.3-58.7-67.3-60.7 0-2-11.3-128-11.3-128z" style="fill:none;stroke-miterlimit:4;stroke-width:10;stroke:#000"/></g><g id="g32"><g id="g34"/><g id="g50"><g id="g48" clip-path="url(#clipPath38)" opacity="1"><g id="g42" transform="translate(441.667,302.6665)"><path id="path40" d="m0 0c25.5-0.7 40.6-7.4 40.6-7.4-0.3 2.5-1.4 4.7-2.6 6.9-1 1.8-4.7 4.7-5.1 6.2 0.2-0.7 0.2-1.6 0.3-2.4-1.9 2.2-4.4 3.8-7.2 4.4 1.3-0.7 2.4-1.7 3.3-2.7-5.7 6.8-47.8 8.4-62.8 1 0.7 0.6 1.4 1.4 2.3 2-1.9-0.4-3.6-1.2-5.3-2.2 0.5 0.5 1.2 1.7 1.8 2.3-3.5-1-7.2-3.1-9.3-6 0.2 1 0.1 2 0.3 3-2-1-2.4-3.2-2.8-5.3-0.4 0.6-1.3 1.4-1.6 2-0.2-2.2 0.9-4.1 2.4-5.6-0.8 0.1-1.6 0-2.4 0.1 4.4-1 4.4-2.4 9.7-1.1 3 0.8 5.9 1.6 9 2.1C-19.7-1.2-9.8 0.3 0 0" class="s2"/></g><g id="g46" transform="translate(441.667,302.6665)"><path id="path44" d="m0 0c25.5-0.7 40.6-7.4 40.6-7.4-0.3 2.5-1.4 4.7-2.6 6.9-1 1.8-4.7 4.7-5.1 6.2 0.2-0.7 0.2-1.6 0.3-2.4-1.9 2.2-4.4 3.8-7.2 4.4 1.3-0.7 2.4-1.7 3.3-2.7-5.7 6.8-47.8 8.4-62.8 1 0.7 0.6 1.4 1.4 2.3 2-1.9-0.4-3.6-1.2-5.3-2.2 0.5 0.5 1.2 1.7 1.8 2.3-3.5-1-7.2-3.1-9.3-6 0.2 1 0.1 2 0.3 3-2-1-2.4-3.2-2.8-5.3-0.4 0.6-1.3 1.4-1.6 2-0.2-2.2 0.9-4.1 2.4-5.6-0.8 0.1-1.6 0-2.4 0.1 4.4-1 4.4-2.4 9.7-1.1 3 0.8 5.9 1.6 9 2.1C-19.7-1.2-9.8 0.3 0 0Z" class="s3"/></g></g></g></g><g transform="translate(420.5,332.75)" id="g52"><path id="path54" d="m0 0c3.6-7.1 8.3-13.5 14-19.2-0.3 1.8-0.1 3.9-0.4 5.8 2.3-4.4 7.3-9.4 11.8-12.7 0.1-0.1 0.3-0.2 0.4-0.3-0.7 1.2-1.5 3.4-1.9 4.2 2.4-4 6.7-7.1 10.4-9.2-1.7 1.9-2.8 3.8-4.1 5.7 4.6-3.9 9.9-7.8 15.5-9.2-1.3 1.1-2.2 2.8-3.5 4 5.3 0 12.1-3.6 14.5-7.7-2.4 4.1-5.3 8.9-9 11.7 5.7-3 13.2-7.1 14.4-13.9-0.2 5.2 0.5 11.6-2.2 16.1 1.2-1.8 2.8-3.5 3.9-5.2C63-18.3 52.7-4.7 43.8 2.3" style="fill-rule:nonzero;fill:#0a0d0b;stroke-miterlimit:10;stroke-width:10;stroke:#000"/></g><g id="g56"><g id="g58"/><g id="g70"><g id="g68" clip-path="url(#clipPath62)" opacity="1"><g id="g66" transform="translate(420.5,332.75)"><path id="path64" d="m0 0c3.6-7.1 8.3-13.5 14-19.2-0.3 1.8-0.1 3.9-0.4 5.8 2.3-4.4 7.3-9.4 11.8-12.7 0.1-0.1 0.3-0.2 0.4-0.3-0.7 1.2-1.5 3.4-1.9 4.2 2.4-4 6.7-7.1 10.4-9.2-1.7 1.9-2.8 3.8-4.1 5.7 4.6-3.9 9.9-7.8 15.5-9.2-1.3 1.1-2.2 2.8-3.5 4 5.3 0 12.1-3.6 14.5-7.7-2.4 4.1-5.3 8.9-9 11.7 5.7-3 13.2-7.1 14.4-13.9-0.2 5.2 0.5 11.6-2.2 16.1 1.2-1.8 2.8-3.5 3.9-5.2C63-18.3 52.7-4.7 43.8 2.3" style="fill-rule:nonzero;fill:#000;stroke-miterlimit:10;stroke-width:10;stroke:#000"/></g></g></g></g><g id="g72"><g id="g74"/><g id="g90"><g id="g88" clip-path="url(#clipPath78)" opacity="1"><g id="g82" transform="translate(353.2954,166.5313)"><path id="path80" d="m0 0c7.6 3.2 20.2 13.6 9.2 19.3-8 4.2-35.3 5.9-45.5-0.5 0.6 0.9 1.1 2.1 1.8 3.1-2.7-1.1-5.5-2.4-8-3.9 0.3 0.8 0.5 1.6 0.9 2.5-1.8-1.1-4.2-1.9-5.9-2.9 0.6 0.8 1.3 2 2.1 2.9-5-2.8-11.4-7.1-13.8-12.4 0.5 0.4 1.5 1 1.8 1.2-1.5-2-2-3.5-2.9-5.6 0.7 1.1 1.7 1.8 2.5 2.8-0.6-1.9-0.6-3.8-1-5.8 0.8 1.2 2 2.1 2.8 3.3-1-3.6-0.9-7.5-0.5-11.2 0.3 2.8 1 3.8 2.3 6 0-3.3-0.2-6.6 0.5-9.7 0.1 3.9 0.4 7.9 2.6 11.2-0.2-1.4 0.2-3 0.1-4.5 0-0.2 0-0.2 0 0 1.6 3.1 4.2 5.7 6.9 7.5-0.3-0.7-0.7-1.4-0.9-2.1 2.5 1.8 5.2 3.4 8.2 4.5-0.5-0.8-0.9-1.5-1.2-2.3 2.1 0.9 4.5 1.1 6.6 1.7-0.5-0.8-0.8-1.5-1.2-2.4 2.6 1.7 5.7 2.7 8.7 2.9-0.9-0.8-1.6-1.8-2.4-2.5 3.1 1.2 6.6 2 9.9 2.5-1.1-0.7-2.2-1.6-3.2-2.2 1.9 0.8 4.2 1 6.3 1.7-0.4-0.7-0.9-1.4-1.3-2.1 1.5 0.4 3.7 0.1 5.5 0.7-0.5-0.8-1-1.4-1.6-2.2 2.2 0.9 4.8 1.7 6.9 2.7C-3.9 3.4-4 2.5-4 1.8-2.3 2.5 0 2.5 1.7 3.6 1 2.6 0.7 1 0 0" class="s4"/></g><g id="g86" transform="translate(353.2954,166.5313)"><path id="path84" d="m0 0c7.6 3.2 20.2 13.6 9.2 19.3-8 4.2-35.3 5.9-45.5-0.5 0.6 0.9 1.1 2.1 1.8 3.1-2.7-1.1-5.5-2.4-8-3.9 0.3 0.8 0.5 1.6 0.9 2.5-1.8-1.1-4.2-1.9-5.9-2.9 0.6 0.8 1.3 2 2.1 2.9-5-2.8-11.4-7.1-13.8-12.4 0.5 0.4 1.5 1 1.8 1.2-1.5-2-2-3.5-2.9-5.6 0.7 1.1 1.7 1.8 2.5 2.8-0.6-1.9-0.6-3.8-1-5.8 0.8 1.2 2 2.1 2.8 3.3-1-3.6-0.9-7.5-0.5-11.2 0.3 2.8 1 3.8 2.3 6 0-3.3-0.2-6.6 0.5-9.7 0.1 3.9 0.4 7.9 2.6 11.2-0.2-1.4 0.2-3 0.1-4.5 0-0.2 0-0.2 0 0 1.6 3.1 4.2 5.7 6.9 7.5-0.3-0.7-0.7-1.4-0.9-2.1 2.5 1.8 5.2 3.4 8.2 4.5-0.5-0.8-0.9-1.5-1.2-2.3 2.1 0.9 4.5 1.1 6.6 1.7-0.5-0.8-0.8-1.5-1.2-2.4 2.6 1.7 5.7 2.7 8.7 2.9-0.9-0.8-1.6-1.8-2.4-2.5 3.1 1.2 6.6 2 9.9 2.5-1.1-0.7-2.2-1.6-3.2-2.2 1.9 0.8 4.2 1 6.3 1.7-0.4-0.7-0.9-1.4-1.3-2.1 1.5 0.4 3.7 0.1 5.5 0.7-0.5-0.8-1-1.4-1.6-2.2 2.2 0.9 4.8 1.7 6.9 2.7C-3.9 3.4-4 2.5-4 1.8-2.3 2.5 0 2.5 1.7 3.6 1 2.6 0.7 1 0 0Z" class="s3"/></g></g></g></g><g id="g92"><g id="g94"/><g id="g110"><g id="g108" clip-path="url(#clipPath98)" opacity="1"><g id="g102" transform="translate(461.6631,160.1377)"><path id="path100" d="m0 0c-0.1 3 3.7 6.3 3.9 9.6 0.5 8.3-11 17.9-18.8 18.2 0.9-0.7 1.5-1.4 2.4-2-2.1 0.9-4.4 2-6.4 2.8 0.3-0.3 1-0.9 1.2-1.1-1.1 0.7-2.2 0.7-3.4 1.1 0.6-0.8 1-1.8 1.7-2.6-1.3 0.9-2.9 1.4-4.3 2.1 0.1-0.2 1-1.3 0.7-0.9-0.7 0.8-1.9 1.3-2.8 1.8-0.7-0.6-3.9-1.5-4.8-0.3 0.4-0.6 0.7-1.5 1.3-2.2-1.9 1.2-4 2-6.3 2 0.3-0.2 1.1-0.6 1.4-0.8-2.1 0.9-4.1 2-6.4 2 0.4-0.3 0.9-0.7 1.3-1.1-2.2 0-4.2 0.2-6.4 0.3 0.5-0.4 0.9-0.8 1.4-1.2-1.6 0.3-3.3 0.6-4.8 1.1 0.3-0.2 0.8-0.6 1.1-0.9-1.4 1.1-3.1 1.8-4.8 2.1 0.2-0.2 0.8-0.8 0.9-1-1.4 0.9-2.6 0.9-4.1 1.3 0.2-0.3 0.8-0.5 0.9-0.8-1.4 0.7-3 1.1-4.4 1.8 0.3-0.4 0.6-1.1 0.9-1.6-0.1 0-0.1 0-0.1 0.2-1.5 0.8-3 1.7-4.5 2.7-0.9-0.8-2.5-1.1-3.3-1.8-0.8 4.1-6.7 0.4-8.8-1.1 0.5 0.5 0.9 1.1 1.3 1.6 0 0-0.3 0.5-0.3 0.5-3.8 0.3-6.8-2.2-9.8-4.3 0.5 0.8 0.8 1.9 1.2 2.6-5.5-2.8-10.6-5.1-8.7-11.8 1.5-5 7.2-7.2 8.9-11.3-0.3 0.6-0.4 1.3-0.6 2 1.4-0.6 3.2-0.9 4.6-1.7-0.3 0.5-0.7 1-1.1 1.5 1.7-0.8 3.6-1.4 5.4-1.7-0.4 0.5-0.8 1.1-1.2 1.6 1.9-0.4 4-0.6 6-0.4-0.2 0.4-0.6 0.8-0.8 1.3 2.3-0.6 4.9-0.9 7.4-1.3-0.9 0.4-1.4 0.9-2.2 1.4 2.3 0.3 4.9 0.1 7-0.4-0.1 0.3-0.5 0.8-0.6 1.2 1.4-0.6 3.3-1.1 4.6-2-0.2 0.8-0.1 1.5-0.3 2.3 0.7-0.6 1.6-1 2.2-1.8-0.5 0.7-0.8 1.6-1.3 2.3 1.1-0.8 2.3-1.3 3.4-2.1-0.6 0.7-0.9 1.8-1.3 2.4 2.2-1.1 4.7-1.7 7.1-2.3-1 1-1.7 2-2.9 2.8 1.9-0.9 4-2.3 6.1-2.8-0.6 0.7-1 1.6-1.6 2.3 1.8-0.7 3.5-1.5 5.5-1.8 0.1 0 0.1 0 0 0-0.8 0.5-1.3 1.3-2 1.9 0.1 0-0.2 0.4-0.2 0.4 7.2 0.1 20.1 1.2 24.7-5.9-0.3 0.8-0.4 1.4-0.8 2.3 2-1.3 3.7-3.4 4.6-5.6 0.2 0.5 0.6 1.1 0.8 1.6 1.2-1.8 1.7-4.2 1.5-6.5 0-0.1 0-0.1 0 0 0.3 0.7 0.8 1.4 1.1 2 0.1-2.7 0.1-5.4-0.4-7.9 1.9 2.4 3.6 5 4.3 7.9-0.1-1 0.1-2.2 0.1-3.3 1.2 1.6 2.8 3.5 3.6 5.5C0 1.9 0.1 0.6 0 0 0-0.1 0-0.1 0 0" class="s4"/></g><g id="g106" transform="translate(461.6631,160.1377)"><path id="path104" d="m0 0c-0.1 3 3.7 6.3 3.9 9.6 0.5 8.3-11 17.9-18.8 18.2 0.9-0.7 1.5-1.4 2.4-2-2.1 0.9-4.4 2-6.4 2.8 0.3-0.3 1-0.9 1.2-1.1-1.1 0.7-2.2 0.7-3.4 1.1 0.6-0.8 1-1.8 1.7-2.6-1.3 0.9-2.9 1.4-4.3 2.1 0.1-0.2 1-1.3 0.7-0.9-0.7 0.8-1.9 1.3-2.8 1.8-0.7-0.6-3.9-1.5-4.8-0.3 0.4-0.6 0.7-1.5 1.3-2.2-1.9 1.2-4 2-6.3 2 0.3-0.2 1.1-0.6 1.4-0.8-2.1 0.9-4.1 2-6.4 2 0.4-0.3 0.9-0.7 1.3-1.1-2.2 0-4.2 0.2-6.4 0.3 0.5-0.4 0.9-0.8 1.4-1.2-1.6 0.3-3.3 0.6-4.8 1.1 0.3-0.2 0.8-0.6 1.1-0.9-1.4 1.1-3.1 1.8-4.8 2.1 0.2-0.2 0.8-0.8 0.9-1-1.4 0.9-2.6 0.9-4.1 1.3 0.2-0.3 0.8-0.5 0.9-0.8-1.4 0.7-3 1.1-4.4 1.8 0.3-0.4 0.6-1.1 0.9-1.6-0.1 0-0.1 0-0.1 0.2-1.5 0.8-3 1.7-4.5 2.7-0.9-0.8-2.5-1.1-3.3-1.8-0.8 4.1-6.7 0.4-8.8-1.1 0.5 0.5 0.9 1.1 1.3 1.6 0 0-0.3 0.5-0.3 0.5-3.8 0.3-6.8-2.2-9.8-4.3 0.5 0.8 0.8 1.9 1.2 2.6-5.5-2.8-10.6-5.1-8.7-11.8 1.5-5 7.2-7.2 8.9-11.3-0.3 0.6-0.4 1.3-0.6 2 1.4-0.6 3.2-0.9 4.6-1.7-0.3 0.5-0.7 1-1.1 1.5 1.7-0.8 3.6-1.4 5.4-1.7-0.4 0.5-0.8 1.1-1.2 1.6 1.9-0.4 4-0.6 6-0.4-0.2 0.4-0.6 0.8-0.8 1.3 2.3-0.6 4.9-0.9 7.4-1.3-0.9 0.4-1.4 0.9-2.2 1.4 2.3 0.3 4.9 0.1 7-0.4-0.1 0.3-0.5 0.8-0.6 1.2 1.4-0.6 3.3-1.1 4.6-2-0.2 0.8-0.1 1.5-0.3 2.3 0.7-0.6 1.6-1 2.2-1.8-0.5 0.7-0.8 1.6-1.3 2.3 1.1-0.8 2.3-1.3 3.4-2.1-0.6 0.7-0.9 1.8-1.3 2.4 2.2-1.1 4.7-1.7 7.1-2.3-1 1-1.7 2-2.9 2.8 1.9-0.9 4-2.3 6.1-2.8-0.6 0.7-1 1.6-1.6 2.3 1.8-0.7 3.5-1.5 5.5-1.8 0.1 0 0.1 0 0 0-0.8 0.5-1.3 1.3-2 1.9 0.1 0-0.2 0.4-0.2 0.4 7.2 0.1 20.1 1.2 24.7-5.9-0.3 0.8-0.4 1.4-0.8 2.3 2-1.3 3.7-3.4 4.6-5.6 0.2 0.5 0.6 1.1 0.8 1.6 1.2-1.8 1.7-4.2 1.5-6.5 0-0.1 0-0.1 0 0 0.3 0.7 0.8 1.4 1.1 2 0.1-2.7 0.1-5.4-0.4-7.9 1.9 2.4 3.6 5 4.3 7.9-0.1-1 0.1-2.2 0.1-3.3 1.2 1.6 2.8 3.5 3.6 5.5C0 1.9 0.1 0.6 0 0 0-0.1 0-0.1 0 0Z" class="s3"/></g></g></g></g><g transform="translate(331.8335,197.833)" id="g112"><path id="path114" d="M0 0C0 0 7.6-20.8 23.2-21.2 43-21.7 62.2 0 62.2 0" class="s0"/></g><g transform="translate(362.1426,172.1836)" id="g116"><path id="path118" d="m0 0c-1.5-0.2-2.9-0.4-4.4-0.3-0.4 0-0.7 0-1.2 0l-0.6 0-0.5 0.1-0.5 0.1 0 0-0.1 0 0 0 0 0-0.1 0-0.1 0-0.3 0c-0.4 0.1-0.8 0.1-1.2 0.2-3.2 0.7-6.1 2.1-8.5 3.9-3.1 2.3-5.4 5.2-7.3 8.1-1.8 3-3.2 6.1-4.3 9.3-0.4 1.2-0.6 3-1.2 4.1 2.6-4.5 5.8-8.7 9.6-11.9 1.9-1.6 3.9-2.9 6-3.7 2.1-0.8 4.2-1.1 6.2-0.9 0.4 0 0.8 0.1 1.1 0.1l0.3 0 0 0 0 0c0.1 0-0.1 0-0.1 0l0 0 0 0 0.1 0 0.2 0c0.2 0 0.5 0 0.7 0.1l2.4 0.3c1.6 0.2 3.3 0.5 5 0.8 3.4 0.6 6.9 1.5 10.5 3 5.8 2.4 11.5 5.7 16.8 9.5 0.9 0.7 2.6 1.5 3.3 2.5C28.4 20.6 24.2 16 19.6 11.7 16.9 9.3 14.1 6.8 10.9 4.6 7.8 2.5 4.1 0.7 0 0" class="s2"/></g><g transform="translate(333,192.499)" id="g120"><path id="path122" d="m0 0c0 0-7.8 2.3-7.5 10.2 0.4 11.2 9.9 17.8 9.9 17.8L-8.7 23" class="s0"/></g><g transform="translate(332.585,209.6143)" id="g124"><path id="path126" d="m0 0c-0.6-1-1.3-2-2-3-0.7-1-1.3-2.2-1.7-3.4l-0.3-1.2c-0.1-0.4-0.2-0.7-0.2-1.1-0.1-0.7-0.1-1.5 0.1-2.3 0.3-1.6 1.2-3.2 2.6-4.5 0.5-0.5 1.2-1.5 1.9-1.6-1.6 0.1-3.2 0.6-4.7 1.5-1.5 0.8-2.9 2-4 3.7-1.1 1.6-1.7 3.6-2 5.5-0.3 1.8-0.4 3.7-0.4 5.6 0.1 3.1 1.4 5.8 3.2 7.9 1.8 2.1 4.1 3.7 6.4 5.1 0.7 0.4 1.3 0.8 2.1 1.2L4 8.2C0.8 7.5-2.5 7-5.7 6.3-6.5 6.2-7.7 6.3-8.3 5.9c2.9 2.3 5.9 4.4 8.8 6.7 0.4 0.3 0.7 0.6 1.1 0.9L4.4 8.6C4.2 8.3 4 7.9 3.8 7.6 3.5 7.2 3.3 6.9 3.1 6.5 2.7 5.7 2.4 5 2 4.2 1.4 2.7 0.8 1.3 0 0" class="s2"/></g><g transform="translate(387.8335,189.999)" id="g128"><path id="path130" d="M0 0C0 0 18.3 0.7 20.3 13.8 22.2 26 8 32.7 8 32.7L20.7 29.5" class="s0"/></g><g transform="translate(412.9561,210.1992)" id="g132"><path id="path134" d="M0 0C0.3-1.4 0.4-2.8 0.3-4.2 0.2-4.9 0.1-5.5-0.1-6.3l-0.2-0.9c-0.1-0.3-0.2-0.7-0.3-1-0.9-2.6-2.5-5-4.4-6.8-2.5-2.3-5.4-3.6-8.2-4.4-2.8-0.8-5.7-1-8.4-1-1 0-2.5 0.4-3.5 0.2 4.1 1 8.1 2.7 11.2 5.1 1.5 1.2 2.8 2.6 3.6 4.1 0.8 1.5 1.1 3 0.9 4.5-0.2 2.4-0.4 4.1-0.9 6.3-0.6 2.1-1.7 4.6-3.7 6.8-0.6 0.7-1.3 1.4-2 2.1-0.7 0.6-1.5 1.3-2.1 1.8l1.6 4.4 9-4c0.9-0.4 2.1-1.3 3.1-1.4-4.4 0.3-8.8 0.7-13.2 1.1l1.4 4.1c0.7-0.2 1.2-0.4 1.7-0.6 2.9-1.2 5.8-2.5 8.5-4.6C-4.6 8.1-3.3 6.8-2.3 5.3-1.2 3.8-0.4 2 0 0" class="s2"/></g><g transform="translate(377.6426,284.377)" id="g136"><path id="path138" d="m0 0c0 0-6.9-16.5-5.7-16.7 1.2-0.2 12 1.2 12 1.2z" class="s5"/></g><g transform="translate(377.6426,284.377)" id="g140"><path id="path142" d="m0 0c0 0-6.9-16.5-5.7-16.7 1.2-0.2 12 1.2 12 1.2z" class="s3"/></g><g transform="translate(367.8867,120.4541)" id="g144"><path id="path146" d="m0 0c0 0 3.3-1.3 11.5 0 8.2 1.3 13.7 3.3 13.7 3.3 0 0-12.2-13.9-15.9-11.5C5.5-5.8 0 0 0 0" class="s5"/></g><g transform="translate(367.8867,120.4541)" id="g148"><path id="path150" d="m0 0c0 0 3.3-1.3 11.5 0 8.2 1.3 13.7 3.3 13.7 3.3 0 0-12.2-13.9-15.9-11.5C5.5-5.8 0 0 0 0Z" class="s3"/></g><g id="g152"><g id="g154"/><g id="g170"><g id="g168" clip-path="url(#clipPath158)" opacity="1"><g id="g162" transform="translate(323.9863,308.0615)"><path id="path160" d="m0 0c1.2-2.7 1.3-5.8 1.2-9-0.3 0.5-0.8 1.2-1 1.7 0.1-0.7 0-1.3 0.1-2-0.6 0.8-1.4 1.6-2.2 2.1 0.3-0.2 0.6-1.1 0.6-1.5-3.1 2.5-8.2 3.1-12.1 4-6.1 1.3-12.3 2-18.5 1.9-17.8-0.2-26-7.8-26-7.8 1.2 1.1 1.3 7.2 1.9 8.8 1.7 5.2 4.7 8.7 9.4 11.6 0 0 0 0.1 0 0-0.7-0.8-1.2-1.7-1.8-2.6 1.6 1.2 3.4 2.5 5.3 3.1-0.9-0.7-1.5-1.7-2.2-2.6 1.5 0.8 3.1 1.5 4.7 2.1-0.7-0.6-1.2-1.5-1.9-2.1 13.8 3 25.7 2.2 34.7-3.6C-8.4 5-8.6 5.8-9.1 6.5-6.8 5.8-4.8 4-2.9 2.6-3.2 3.2-3.5 4.1-4 4.7-2 3.4-0.8 1.8 0 0" class="s2"/></g><g id="g166" transform="translate(323.9863,308.0615)"><path id="path164" d="m0 0c1.2-2.7 1.3-5.8 1.2-9-0.3 0.5-0.8 1.2-1 1.7 0.1-0.7 0-1.3 0.1-2-0.6 0.8-1.4 1.6-2.2 2.1 0.3-0.2 0.6-1.1 0.6-1.5-3.1 2.5-8.2 3.1-12.1 4-6.1 1.3-12.3 2-18.5 1.9-17.8-0.2-26-7.8-26-7.8 1.2 1.1 1.3 7.2 1.9 8.8 1.7 5.2 4.7 8.7 9.4 11.6 0 0 0 0.1 0 0-0.7-0.8-1.2-1.7-1.8-2.6 1.6 1.2 3.4 2.5 5.3 3.1-0.9-0.7-1.5-1.7-2.2-2.6 1.5 0.8 3.1 1.5 4.7 2.1-0.7-0.6-1.2-1.5-1.9-2.1 13.8 3 25.7 2.2 34.7-3.6C-8.4 5-8.6 5.8-9.1 6.5-6.8 5.8-4.8 4-2.9 2.6-3.2 3.2-3.5 4.1-4 4.7-2 3.4-0.8 1.8 0 0Z" class="s3"/></g></g></g></g><g transform="translate(284.875,283.625)" id="g172"><path id="path174" d="M0 0C0 0 7.4 7.7 20.9 8 39.5 8.4 49-2.2 49-2.2 49-2.2 36.9-6.4 20.6-5.9 6.3-5.4 0 0 0 0" class="s6"/></g><g transform="translate(284.875,283.625)" id="g176"><path id="path178" d="M0 0C0 0 7.4 7.7 20.9 8 39.5 8.4 49-2.2 49-2.2 49-2.2 36.9-6.4 20.6-5.9 6.3-5.4 0 0 0 0Z" class="s3"/></g></g></g><g id="g180"><g clip-path="url(#clipPath186)" id="g182"><g transform="translate(321.0024,290.9229)" id="g188"><path id="path190" d="m0 0c-2.8 5.7-9.6 8-15.2 5.3-5.6-2.8-7.9-9.6-5.1-15.2 2.8-5.7 9.6-8 15.2-5.3C0.5-12.5 2.8-5.7 0 0" class="s7"/></g><g transform="translate(321.0024,290.9229)" id="g192"><path id="path194" d="m0 0c-2.8 5.7-9.6 8-15.2 5.3-5.6-2.8-7.9-9.6-5.1-15.2 2.8-5.7 9.6-8 15.2-5.3C0.5-12.5 2.8-5.7 0 0Z" class="s3"/></g><g transform="translate(318.5713,289.8877)" id="g196"><path id="path198" d="m0 0c-2.1 4.3-7.3 6.1-11.6 4-4.3-2.1-6-7.3-3.9-11.7 2.1-4.3 7.3-6.1 11.6-4C0.4-9.6 2.1-4.3 0 0" class="s2"/></g><g transform="translate(318.5713,289.8877)" id="g200"><path id="path202" d="m0 0c-2.1 4.3-7.3 6.1-11.6 4-4.3-2.1-6-7.3-3.9-11.7 2.1-4.3 7.3-6.1 11.6-4C0.4-9.6 2.1-4.3 0 0Z" class="s3"/></g><g transform="translate(304.5078,289.5176)" id="g204"><path id="path206" d="m0 0c-0.5 1-1.6 1.4-2.5 0.9-0.9-0.5-1.3-1.6-0.8-2.6 0.5-1 1.6-1.4 2.5-0.9C0.1-2.1 0.5-1 0 0" class="s6"/></g><g transform="translate(304.5078,289.5176)" id="g208"><path id="path210" d="m0 0c-0.5 1-1.6 1.4-2.5 0.9-0.9-0.5-1.3-1.6-0.8-2.6 0.5-1 1.6-1.4 2.5-0.9C0.1-2.1 0.5-1 0 0Z" class="s3"/></g></g></g><g id="g212"><g clip-path="url(#clipPath218)" id="g214"><g transform="translate(284.875,283.625)" id="g220"><path id="path222" d="M0 0C0 0 7.4 7.7 20.9 8 39.5 8.4 49-2.2 49-2.2 49-2.2 36.9-6.4 20.6-5.9 6.3-5.4 0 0 0 0Z" class="s3"/></g><g transform="translate(407.625,280.125)" id="g224"><path id="path226" d="m0 0c0 0 10.1 10 25.6 10.5 15.5 0.5 27-8.7 27-8.7 0 0-11.1-3.6-26-4C13-2.6 0 0 0 0" class="s6"/></g><g transform="translate(407.625,280.125)" id="g228"><path id="path230" d="m0 0c0 0 10.1 10 25.6 10.5 15.5 0.5 27-8.7 27-8.7 0 0-11.1-3.6-26-4C13-2.6 0 0 0 0Z" class="s3"/></g></g></g><g id="g232"><g clip-path="url(#clipPath238)" id="g234"><g transform="translate(452.2959,288.2754)" id="g240"><path id="path242" d="m0 0c-2.4 5.8-9.1 8.6-14.8 6.2-5.8-2.4-8.4-9.1-6-14.9 2.4-5.8 9.1-8.6 14.8-6.2C-0.3-12.5 2.4-5.8 0 0" class="s7"/></g><g transform="translate(452.2959,288.2754)" id="g244"><path id="path246" d="m0 0c-2.4 5.8-9.1 8.6-14.8 6.2-5.8-2.4-8.4-9.1-6-14.9 2.4-5.8 9.1-8.6 14.8-6.2C-0.3-12.5 2.4-5.8 0 0Z" class="s3"/></g><g transform="translate(449.8047,287.3955)" id="g248"><path id="path250" d="m0 0c-1.9 4.5-6.9 6.6-11.3 4.8-4.4-1.8-6.5-6.9-4.6-11.4 1.9-4.5 6.9-6.6 11.4-4.8C-0.2-9.6 1.9-4.5 0 0" class="s2"/></g><g transform="translate(449.8047,287.3955)" id="g252"><path id="path254" d="m0 0c-1.9 4.5-6.9 6.6-11.3 4.8-4.4-1.8-6.5-6.9-4.6-11.4 1.9-4.5 6.9-6.6 11.4-4.8C-0.2-9.6 1.9-4.5 0 0Z" class="s3"/></g><g transform="translate(435.7461,287.9121)" id="g256"><path id="path258" d="M0 0C-0.4 1-1.5 1.5-2.5 1.1-3.4 0.7-3.9-0.4-3.4-1.4-3-2.4-1.9-2.9-1-2.5 0-2.1 0.4-1 0 0" class="s6"/></g><g transform="translate(435.7461,287.9121)" id="g260"><path id="path262" d="M0 0C-0.4 1-1.5 1.5-2.5 1.1-3.4 0.7-3.9-0.4-3.4-1.4-3-2.4-1.9-2.9-1-2.5 0-2.1 0.4-1 0 0Z" class="s3"/></g></g></g><g id="g264"><g clip-path="url(#clipPath270)" id="g266"><g transform="translate(407.625,280.125)" id="g272"><path id="path274" d="m0 0c0 0 10.1 10 25.6 10.5 15.5 0.5 27-8.7 27-8.7 0 0-11.1-3.6-26-4C13-2.6 0 0 0 0Z" class="s3"/></g><g transform="translate(283.5,283.083)" id="g276"><path id="path278" d="M0 0C0 0 9.9 9.4 25.6 9.3 41.3 9.1 51-2.1 51-2.1" class="s3"/></g><g transform="translate(300.125,277.708)" id="g280"><path id="path282" d="M0 0C6.4-0.8 14.3-0.8 20.8 0.7" class="s3"/></g><g transform="translate(406,279.25)" id="g284"><path id="path286" d="M0 0C0 0 9.5 11.2 27 12.1 44.9 13 55.8 1.4 55.8 1.4" class="s3"/></g><g transform="translate(428.75,277.3125)" id="g288"><path id="path290" d="M0 0C8.2-0.5 17 0.2 24.8 2.4" class="s3"/></g><g transform="translate(282.75,287.583)" id="g292"><path id="path294" d="M0 0C14.9 11.2 37 12.7 51.7-3.1" class="s3"/></g><g transform="translate(409.583,286.75)" id="g296"><path id="path298" d="M0 0C15.6 11.2 37.5 11.2 52-2.3" class="s3"/></g><g transform="translate(313.5,164.833)" id="g300"><path id="path302" d="m0 0c0 0 23-0.3 27-1.3 4-1 16.7-8.2 32.3-8.3C75-9.8 88.7-2 100.3-1 112 0 129-2.2 129-2.2c0 0-21-32-71.3-32.2C18-34.5 0 0 0 0" class="s6"/></g><g transform="translate(313.5,164.833)" id="g304"><path id="path306" d="m0 0c0 0 23-0.3 27-1.3 4-1 16.7-8.2 32.3-8.3C75-9.8 88.7-2 100.3-1 112 0 129-2.2 129-2.2c0 0-21-32-71.3-32.2C18-34.5 0 0 0 0Z" class="s3"/></g><g transform="translate(333.3335,164)" id="g308"><path id="path310" d="M0 0C0 0-2.7-1.5-2.5-3-2.3-4.5 0-15.2 2.7-17.3 5.3-19.5 22-26.8 22-26.8l-18.5 5.5 0.7-2.8-7.5 5.5-10.5 10.7-4.6 6.1-1.4 2.8z" class="s2"/></g><g transform="translate(333.3335,164)" id="g312"><path id="path314" d="M0 0C0 0-2.7-1.5-2.5-3-2.3-4.5 0-15.2 2.7-17.3 5.3-19.5 22-26.8 22-26.8l-18.5 5.5 0.7-2.8-7.5 5.5-10.5 10.7-4.6 6.1-1.4 2.8z" class="s3"/></g><g transform="translate(424.75,164.125)" id="g316"><path id="path318" d="m0 0c0 0 3.5-1.2 4.3-3.6 0.8-2.4 1-6 1-6l-10.9-7.5 11 5-1.5-3.2 7.4 6.3 5.5 5.8 0.9 2-8.5 0.7z" class="s2"/></g><g transform="translate(424.75,164.125)" id="g320"><path id="path322" d="m0 0c0 0 3.5-1.2 4.3-3.6 0.8-2.4 1-6 1-6l-10.9-7.5 11 5-1.5-3.2 7.4 6.3 5.5 5.8 0.9 2-8.5 0.7z" class="s3"/></g></g></g><g id="g324"><g clip-path="url(#clipPath330)" id="g326"><g transform="translate(545.667,211.333)" id="g332"><path id="path334" d="m0 0c0.8-9.8-1.4-19.6-1.6-29.3 0.6 0.3 1.1 1.4 1.6 1.5-1.5-8-4.2-18.7-9.8-25 1.4 2.1 3.6 3.8 5.1 5.6-0.2-5.4-1.8-10.7-3.1-15.9 6.9 3.9 13 5.9 18.2 12.3-0.8-3.3-1.4-5.6-3.4-8.4 3.8 3.2 6.2 7.6 9.6 10.8-0.6-3.9-2.6-7.6-5.3-10.6 10.7 1.9 18.6 15.1 23 24.6-0.3-3 0.3-6.2 0.1-9.1 5.7 8.3 11.4 16 15.2 25.2-0.1-2 0.3-4.2 0.1-6.3 4.5 5.4 3.8 13.9 4.9 20.9 1.2-3.2 2.3-3.3 4.4-5.8-0.3 3.9-0.4 8-0.3 11.9 0 0.3 0 0.2 0 0 0.4-2 1.3-4.5 1.6-6.3C61.3 6.3 63.1 15.9 60 26" class="s8"/></g><g id="g336"><g id="g338"/><g id="g350"><g id="g348" clip-path="url(#clipPath342)" opacity="1"><g id="g346" transform="translate(545.667,211.333)"><path id="path344" d="m0 0c0.8-9.8-1.4-19.6-1.6-29.3 0.6 0.3 1.1 1.4 1.6 1.5-1.5-8-4.2-18.7-9.8-25 1.4 2.1 3.6 3.8 5.1 5.6-0.2-5.4-1.8-10.7-3.1-15.9 6.9 3.9 13 5.9 18.2 12.3-0.8-3.3-1.4-5.6-3.4-8.4 3.8 3.2 6.2 7.6 9.6 10.8-0.6-3.9-2.6-7.6-5.3-10.6 10.7 1.9 18.6 15.1 23 24.6-0.3-3 0.3-6.2 0.1-9.1 5.7 8.3 11.4 16 15.2 25.2-0.1-2 0.3-4.2 0.1-6.3 4.5 5.4 3.8 13.9 4.9 20.9 1.2-3.2 2.3-3.3 4.4-5.8-0.3 3.9-0.4 8-0.3 11.9 0 0.3 0 0.2 0 0 0.4-2 1.3-4.5 1.6-6.3C61.3 6.3 63.1 15.9 60 26" class="s2"/></g></g></g></g><g transform="translate(552.334,202.666)" id="g352"><path id="path354" d="M0 0C0 0 15.7-0.7 28 6.7 40.3 14 52.3 34 52.3 34L58 64.3 59.7 105.7 46.3 126l-11.7 5.7-23-14.3" style="fill-rule:nonzero;fill:#ffd2b0;stroke-miterlimit:4;stroke-width:3;stroke:#000"/></g><g transform="translate(253.6665,198.333)" id="g356"><path id="path358" d="m0 0c0 0 0.1-29.9 3.7-44 4.7-18.7 25.3-43.7 33-54.7 13-18.7 19-66.3 74.7-75 55.7-8.7 88.7 29.3 107.7 48.3 19 19 57.7 44.3 69.7 72 12 27.7 17.3 59.7 15.3 79.7-2 20 1.3 59.8 1.3 59.8l-12.7 101.2c0 0-80.7 45.3-84 47.3-3.3 2-77.3 31.3-82.7 32.7-5.3 1.3-58 4.7-58 4.7 0 0-67.3-58.7-67.3-60.7 0-2-11.3-128-11.3-128z" class="s0"/></g><g transform="translate(253.6665,198.333)" id="g360"><path id="path362" d="m0 0c0 0 0.1-29.9 3.7-44 4.7-18.7 25.3-43.7 33-54.7 13-18.7 19-66.3 74.7-75 55.7-8.7 88.7 29.3 107.7 48.3 19 19 57.7 44.3 69.7 72 12 27.7 17.3 59.7 15.3 79.7-2 20 1.3 59.8 1.3 59.8l-12.7 101.2c0 0-80.7 45.3-84 47.3-3.3 2-77.3 31.3-82.7 32.7-5.3 1.3-58 4.7-58 4.7 0 0-67.3-58.7-67.3-60.7 0-2-11.3-128-11.3-128z" style="fill:none;stroke-miterlimit:4;stroke-width:3;stroke:#000"/></g><g transform="translate(335.667,61)" id="g364"><path id="path366" d="m0 0c-31.3 26.7-74.7 142.7-12.1 218.8-27.2 47.9-26.8 99.2 9.4 143.2l-66.7 2-16-80-0.7-76.7 4-70C-82 137.3-79.3 96-72 84-64.7 72 0 0 0 0" class="s5"/></g><g transform="translate(297.167,85.499)" id="g368"><path id="path370" d="m0 0c1.1-4.5 0.8-9.3 1.4-14 0.6 0.9 1.5 1.8 2 2.9-0.7-2.4-0.5-5.2-0.2-7.6 0.2 1.1 0.8 2.3 1.1 3.4 0.9-3.7 2.2-7.7 3.9-11.1 0.1 1.6 0.2 3.6 0.3 5.3 1.4-2.9 1.8-6.8 4-9.3 0.1 1.3 0.4 2.8 0.3 4-0.3-4.7 4.7-13 7.3-16.7 0 1.4-0.6 2.8-0.3 4.1 0.6-2.3 2.8-4.5 4.1-6.6-0.1 0.8-0.1 1.6-0.2 2.4 1.6-1.9 2.5-4.5 2.5-7 0.1 1 0.3 2 0.8 2.9 0-1.8 0.3-4.1-0.4-5.7 1.1 1.4 2.7 2.9 4.2 3.7-0.7-1.3-0.5-2.9-0.5-4.3 0.1 0.9 0.3 1.9 1 2.7-0.1-1.6 0.6-2.5 1.5-3.8 0.1 0.7 0.7 1.6 0.9 2.5 1.2-1.8 2.6-3.8 3.9-5.1 0 0.9 0.3 1.8 0.3 2.6 1-1.6 2-3.2 3.2-4.6 0 1.2 0.5 2.5 0.6 3.6 0.6-0.4 5.4-6.4 5.4-6.9-0.2 1.2 0.1 2.4-0.1 3.6 1.4-2.4 3.1-4.7 5.3-6.3-0.1 1.3 0.3 2.8 0.1 4.1 1.3-2.2 3.3-4.3 5.6-5.5-0.5 1.1-0.4 2.2-1 3.1 5.1 0.7 8.8-3.3 13-5.1-0.7 1.1-0.8 2.3-1.3 3.4 1.8-1.8 3.4-3.1 5.7-3.9-0.4 1-0.6 2.1-1 3.1 1.4-2.3 4.2-3.5 6.8-4-0.4 1.2-0.2 2.3-0.4 3.5 0.7-1.1 1.6-2 2.1-3.3 0 1.3 0.4 2.2 0.7 3.3-0.1-0.8 0.1-2.4 0-3.3 1.8 0.7 3.6 1.8 5 3.3-0.6-1.3-0.8-2.3-1.7-3.5 2.1 0.8 4.2 1.8 5.8 3.4-0.4-1.7-0.2-2.4-1.2-3.9-0.1-0.1-0.1-0.1-0.1 0 2.5 1.1 5.4 2.4 7.1 4.4-0.4-1.2-0.3-2.5-0.8-3.8 2.8 1 5.1 2.8 7.1 4.6-0.3-0.8-0.5-1.7-0.9-2.5 2.5 0.8 4.4 3 6.1 4.7-0.2-1.2 0.2-2.7 0-3.9 2.3 1 4.4 2.8 5.6 5.1 0.2-0.9 0.8-1.7 0.9-2.7 0.2 1.7 0.9 2.5 1.6 3.9 0.2-1.1 1-1.9 1.2-3.1 0.3 2.8 2.1 5.2 4.7 6.3 0.3-1.4 0.9-3 0.8-4.6-0.5 3.6 2.6 6 5.1 7.9 0-1.2 0.7-2.5 0.7-3.5 1.8 4.6 6.4 4.8 10.3 6.7 4.6 2.3 7.4 5.5 9 10.6-0.1-1.3 0.2-2.8 0.1-4.1 2.6 1.7 4.6 4.4 5.9 7.2 0.1-1.2 0.5-2.2 0.6-3.5 2.8 1.9 5.6 4.7 5.9 8.2 0.3-1.5 1.1-2.8 1.4-4.2 1.1 2.6 1.5 4.1 0.3 6.9 2.2-1 4.7-1.9 6.6-3.2-1.1 1.6-1.2 3.1-1.9 4.9 1.2-1.1 3.5-1.9 4.7-2.9-0.8 2.8-1 6.1-0.7 9.2 0.6-1.4 2.2-3.3 2.8-4.4-0.1 5.3 4.4 9.7 5.9 14.6-0.1-1.6 0.6-3.9 0.6-5.6 2.8 3.1 4.8 7.4 7.2 10.7-0.2-2.1 0.3-4.3 0.1-6.4 1.8 3 3.7 6.1 3.7 9.6 0.2-1.1 1.1-2.4 1.3-3.2 2.3 2.2 3.8 5.2 4 8.4 0.2-1.6 1.2-3.3 1.5-4.7 0.6 1.8 2 4 2.3 6.2 0.3-0.6 0.6-1.3 0.9-1.9 0 2.6 1.1 4 2.1 6 0.4-1.1 1.2-2.1 1.5-3.3 0-0.2 0-0.2 0 0 0.1 3.1 1 6 3 8 0.1-1.1 0.6-2.3 0.7-3.2 0.5 2.1 1.5 3.8 2.3 5.5 0.1-1.7 0.5-3.2 0.5-4.7V9.1c0 0.1 0.3 0.3 0.2 0.4 1.6 7.2 8.4 11.6 12 17.8 0.1-1.2 0.8-2.4 0.9-3.6 0.9 1.9 1.8 4 3 5.7 0.2-1 0.8-1.9 0.9-3 0.3 1.9 0.8 3.9 1.8 5.6 0 0.1 0 0.2-0.1 0.1 0.3-1.6 1.1-3.2 2.4-4.3 0.3 5 1.2 8.6 3.5 13 0 0.1 0 0.1 0 0 0-1.1 0.2-2.5 0.1-3.5 0.5 3.1 2.3 6.2 4.2 8.5 0.1-0.4 0-0.9 0.1-1.3 0.4 2.1 1.1 4.2 2.2 6.1 0.3-0.6 0.9-1.3 1.3-2.1 0.5 2.5 0.4 5.3 1.2 7.8 0.4-0.5 1.4-0.9 1.8-1.4 0.2 1.4 1.1 3 1.3 4.3 0.4-0.6 2.4-2.2 2.3-3 0.4 2.4 0.9 4.6 1 7.1 0.3-0.9 1.1-1.9 1.3-2.4 0 3 0 6.1 0 9.1 0.3-0.8 0.9-1.6 1.3-2.3 0.7 2.3 0.8 4.8 0.9 7.3 1.2-0.7 2.7-0.6 3.9-1.2-1.3 1.2-1.9 2.8-2.1 4.6 0.5-0.5 1.1-0.8 1.7-1.2-0.4 2.6-1 5.1-0.9 7.8 0.1-0.1 0.2 0.3 0.2 0.4 0.7-0.7 1.8-1.1 2.4-1.6-1.9 3.9 0 8.5-1.6 12.1 0.6-1.4 1.4-2.6 1.8-4.1 0.3 2.7 0.6 5.5 0.5 8.3 0.4-0.6 1.2-1.3 1.6-2 0 2.3-0.4 4.5-0.3 6.8 0.4-0.6 1.3-1.6 1.7-2.1-0.2 2.7-1.1 5.3-2.2 7.7-0.1 0.1-0.1 0.1 0 0 0.8-0.9 1.9-1.7 2.7-2.6-0.7 1.3-0.8 2.9-1.1 4.3 0.6-0.1 1.3-0.1 2-0.1-2.5 5.7-5.1 9.1-5.9 15.5-0.7 5.8-1.2 11.6-1.5 17.4-0.5 11.4-0.2 23.3 3.5 34.2-21.3 0.4-34-6-38.7-27.6 0.5 0.4 1.5 0.8 2.1 1.2-0.2-1.6-0.7-3.1-1.1-4.7 0.7 0.7 1.7 1.5 2.4 2.2-1.7-3.8-2.9-8.2-2.8-12.6 0.5 1.4 1.6 4.5 1.6 4.7 0-7.7 4.9-13.9 5.2-21.4-0.8 1.1-2.1 2.1-2.9 3.3 1-2.6 1.5-5.6 1.8-8.4-0.6 1.6-2 2.9-3.1 4.4 2.1-2.9-2.4-11.8-2.3-15.4-0.2 1.8-0.7 4-0.9 5.9 0-4 0.1-8.2 0.2-12-0.2 1.6-0.9 3.4-1.2 5-1.2-5.2-1-10.8-1-16.4-0.3 1.6-1.3 3.2-1.7 4.7-0.8-3.1-1.4-6.5-1.5-9.8-0.7 2-1.6 4.6-2 6.8-0.4-6-0.7-11-4-16 0.1 2.2-0.1 4.3 0.2 6.4-1.4-4.9-4.2-11.4-9.2-13.4 0.7 3 1.4 6 1.5 9.1-2.7-2.6-4.3-6.5-6.7-9.4 0 2.9 0.1 5.5 0.2 8.4-1.1-3.8-4.2-7.5-7.7-9.6 0.6 1.4 0.9 3.4 1.7 4.8-2.8-2.9-5.4-5.5-7.4-9.1 0.3 1.2 0.4 2.6 0.6 3.9-2.9-3.6-6.3-8.4-6.2-13 0.1 1.6-0.1 3.2-0.1 4.8-1.2-3.5-3.5-7.3-3.9-11.3 0-0.2 0-0.2 0 0-0.1 1.2-0.4 2.5-0.4 3.7-1.9-3.7-2.3-8.1-2.6-12.2-0.7 2-1.3 3.4-1.5 5.7 0-4.9-1.2-10.7-3.8-14.7 0 0.5-0.2 2.4-0.2 2.6-1.9-3.7-3.8-7.7-7.5-10 0.5 1.7 0.6 3.1 1.4 4.7-3-4.9-7.4-8.5-10.6-13.3-0.1 1.6 0.1 4.1 0.4 5.9-1.4-1.9-2.2-4-3.4-6 0 2.5 0 5.1 0 7.6-1.8-2.3-2.5-5.5-3-8.4 0 1.8 0 3.6 0.2 5.4-0.5-2-1-4.3-1.2-6.5 0-0.1 0-0.1 0 0-0.5 1.7-0.8 3.1-0.8 4.9 0-2.6-1.3-6.7-3-9.4 0.1 1.3-0.1 2.9 0 4-1.2-2.3-2.1-5-3.5-7.2 0.1 1.2 0 2.5 0.1 3.7-0.8-3.4-2-7-4.5-9.6 0.2 1.4 0.1 2.4 0.6 3.8-1.7-4.6-6.4-9-10.6-11.8 0.8 1.6 1.6 3.3 2 5.1-1.8-3.5-6.8-5.4-9.9-7.6 0.6 1.6 0.9 3.7 1.7 5.2-1.9-2.9-5-5-8.1-6.2 0.7 0.9 1.2 2 1.7 3-2-0.8-6.5-2.6-7.3-4.7 0.8 2 2.2 4.1 2.8 6.3-2.6-3.5-6.7-6-10.3-8.4 1.5 1.7 2.8 3.6 2.8 5.9-2.3-1.9-5.3-3-7.6-4.8 1.6 2.9 3.4 5.4 3.2 9-3.9-3.8-8.3-7.3-12-11.2 1.2 2.4 2.3 5.1 2.8 7.7-1.6-2.5-3.5-5-5.9-6.9 1.3 3.2 1 6.8 1 10.3-0.9-1.7-2.2-4-2.3-5.8 1.2 6.8 0.1 13.9 0 20.8C74.8 3.5 74.3 1.8 74.2 0.2 73.9 4.4 74 8.8 72.7 12.6 72.5 9.9 72.2 7 71.4 4.7 71 7.1 70.7 9.5 70 11.8 69.9 9.3 68.8 6.9 67.7 4.7 67.7 6.7 67.7 9 67.5 10.8 66.7 7 63.5 3.6 61.5 0.3 61.9 1.9 62.1 4.3 61.8 6.2 59.2 1.3 54-2.4 51.1-7.4c0.3 1.6 0.3 3.5 0.6 5.2-2.4-2.7-3.6-4.7-3.7-8.6-1 2-3.1 4-4.2 6.2 0.1-2-0.6-4.1-0.5-6.2C39.3-7.4 35.7-2.5 33.2 2.1 33.2 0.8 33-0.8 33.1-2.2 31.4 0.4 29.1 3.6 27.9 6.1 27.6 4.5 26.8 3 26.5 1.3 25.9 4 24.7 6.7 24.4 9.7 23.9 7.9 22.9 6.2 22.5 4.3c-0.6 4.1-0.8 8.4 1 12 0.1 0.1 0.1 0.1 0 0-1.2-1.4-3.1-2.5-4.2-4.1-0.2 4.2 0.6 8.6 2.7 12.3 0.1 0.1 0.7 0.6 0.3 0.1-4-2-6.8-5.9-6.7-10.5 0-0.2 0-0.2 0 0 0.3 2.7-0.1 6.7 0 8.8-0.4-1.9-1.2-3.6-1.4-6-0.8 2.5-2.1 5.3-2.5 8 0.1-1.5-0.2-3.1-0.1-4.6-2 2.9-3.4 6.3-4.3 9.7 0 0.2 0 0.2 0 0C7.1 28.3 6.8 26.1 6.8 24.8 6.5 27.7 5.7 30.2 5.9 33.4 5.3 31.7 4.4 30 3.9 28.3 3.9 28.3 3.2 28.8 3.2 28.9c0.4 3.2 0 6.5 0.9 9.6-1-1.4-3.2-2.9-4.3-4.4-1.3 4.2-0.1 9.2 1.7 13.3-1.9-1-3.7-2.6-5.5-3.9-0.7 2.2-0.9 4.8-0.6 7.2-0.9-2.2-2-4.7-2.3-6.1 0.4 3.5 0.1 7.3-0.9 10.5-0.5-1.5-1.3-2.9-1.7-4.3-0.1 4.8-0.9 10.1-3.7 13.9 0-1.5-0.8-3.7-0.9-5.3-2.7 4.1-5.4 8.5-8 12.6-0.4-2.1-1.6-3.6-1.7-5.9-1 2.9-2.4 5.2-3 8.1 0.1-3.3 0.1-5.8 1.2-8.9-1.6 2.8-3.3 5.2-4.5 8.3 0.1-1.9-0.1-3.9 0-5.8-1.4 2.9-3 6.7-3.7 9.3 0-1.9-0.5-4.1-0.3-6.3-1 4.1-2.8 8.5-3 12.8 0-0.8-1-1.7-1-2.5v-0.5c0 4.4 0.2 8.9 0.4 13.5-0.5-1.7-0.7-3.2-1.2-4.8-0.7 5-0.6 10.6-0.5 15.9-1-2.1-2.5-3.6-3.1-6.5-0.9 3.4-1.3 7-1.9 10.5-2.3-5.6-1.1-11.9-5.4-16.9 1 1.2 2.2 2.2 3.2 3.3-0.6-3.3-1.1-7.8-0.9-10.7 0.6 1.2 1.4 2.4 1.9 3.5 0-4.6 0.4-9.2 1.4-13.5 0-0.3 0-0.3 0 0 0.3 1.6 0.7 3.1 1 4.6 0.1-4 0.4-8.2 2-11.6 0 0 12.8-24.3 18.5-32.1C-16.9 28-2.1 8.2 0 0" class="s4"/></g><g id="g372"><g id="g374"/><g id="g386"><g id="g384" clip-path="url(#clipPath378)" opacity="1"><g id="g382" transform="translate(441.667,302.6665)"><path id="path380" d="m0 0c25.5-0.7 40.6-7.4 40.6-7.4-0.3 2.5-1.4 4.7-2.6 6.9-1 1.8-4.7 4.7-5.1 6.2 0.2-0.7 0.2-1.6 0.3-2.4-1.9 2.2-4.4 3.8-7.2 4.4 1.3-0.7 2.4-1.7 3.3-2.7-5.7 6.8-47.8 8.4-62.8 1 0.7 0.6 1.4 1.4 2.3 2-1.9-0.4-3.6-1.2-5.3-2.2 0.5 0.5 1.2 1.7 1.8 2.3-3.5-1-7.2-3.1-9.3-6 0.2 1 0.1 2 0.3 3-2-1-2.4-3.2-2.8-5.3-0.4 0.6-1.3 1.4-1.6 2-0.2-2.2 0.9-4.1 2.4-5.6-0.8 0.1-1.6 0-2.4 0.1 4.4-1 4.4-2.4 9.7-1.1 3 0.8 5.9 1.6 9 2.1C-19.7-1.2-9.8 0.3 0 0" class="s2"/></g></g></g></g><g transform="translate(420.5,332.75)" id="g388"><path id="path390" d="m0 0c3.6-7.1 8.3-13.5 14-19.2-0.3 1.8-0.1 3.9-0.4 5.8 2.3-4.4 7.3-9.4 11.8-12.7 0.1-0.1 0.3-0.2 0.4-0.3-0.7 1.2-1.5 3.4-1.9 4.2 2.4-4 6.7-7.1 10.4-9.2-1.7 1.9-2.8 3.8-4.1 5.7 4.6-3.9 9.9-7.8 15.5-9.2-1.3 1.1-2.2 2.8-3.5 4 5.3 0 12.1-3.6 14.5-7.7-2.4 4.1-5.3 8.9-9 11.7 5.7-3 13.2-7.1 14.4-13.9-0.2 5.2 0.5 11.6-2.2 16.1 1.2-1.8 2.8-3.5 3.9-5.2C63-18.3 52.7-4.7 43.8 2.3" class="s8"/></g><g id="g392"><g id="g394"/><g id="g406"><g id="g404" clip-path="url(#clipPath398)" opacity="1"><g id="g402" transform="translate(420.5,332.75)"><path id="path400" d="m0 0c3.6-7.1 8.3-13.5 14-19.2-0.3 1.8-0.1 3.9-0.4 5.8 2.3-4.4 7.3-9.4 11.8-12.7 0.1-0.1 0.3-0.2 0.4-0.3-0.7 1.2-1.5 3.4-1.9 4.2 2.4-4 6.7-7.1 10.4-9.2-1.7 1.9-2.8 3.8-4.1 5.7 4.6-3.9 9.9-7.8 15.5-9.2-1.3 1.1-2.2 2.8-3.5 4 5.3 0 12.1-3.6 14.5-7.7-2.4 4.1-5.3 8.9-9 11.7 5.7-3 13.2-7.1 14.4-13.9-0.2 5.2 0.5 11.6-2.2 16.1 1.2-1.8 2.8-3.5 3.9-5.2C63-18.3 52.7-4.7 43.8 2.3" class="s2"/></g></g></g></g><g transform="translate(259.5015,311.5068)" id="g408"><path id="path410" d="m0 0c4.5 18.8 2.5 30.5 6.5 50.5 1.9 9.7 0.5 24 6.3 32.4 0-6-0.3-10.7 4-15.2 0.1 4.2 0.6 8.8 2.7 12.9-2.7-5.3 2.1-12 3-17.2 0.9-5.2 0.3-10.4-0.7-15.6-2.2-10.8-6.6-21.9-12.4-31.3 3.4 5.5 9.5 9.3 12.8 15.2 3.6 6.3 5.8 13.3 7.2 20.4 3.1 15.3-0.8 31.1 2.3 46.2 0-3.7 0.1-7.3 1.6-10.6 0.3 3.6-0.3 7.5-0.3 11.2v0.4c2-6.5 6.7-14 12.1-17.6-5.8 4-5.5 18.6-3.5 24.4-1.4-4 13.6-21.7 15.8-25.8 3.9-7.2 7.4-13 13-19.3 11.1-12.6 23.5-23 41.4-20.9-25.1 0.2-44.9 39.4-44.7 61 2.4-5 5.3-10.1 8.5-14.5-0.3 1.6-0.2 4.3-0.5 5.5 5.1-28.3 35.8-42.9 53.8-61.8-0.4 1.2-1 3.8-1.7 5.2 3.5-4.4 8.3-8.1 13.6-10-1.2 1.5-1.8 3.4-2.8 4.7 20-13.6 53.1-10.5 69.3-29.3-0.9 3.3-2 6.1-4.5 8.7 3.1-2.9 7.6-4.9 12.1-4.6-1.3 1.4-2.2 3.3-3.5 4.5 8-1.4 17-8.7 20.2-16.2 0.4 10.4 0.2 21.1-4.8 30.2 2.2-1.8 4.4-2.9 6.2-5.2-3 6-5.4 12-4.7 19.1 0.6-1.7 1.7-3.6 2.3-5.2 0.4 7.2-0.6 13.9-3.6 20.2 6.5-8.4 15.7-12.2 24.8-16.7-1.6 2.1-3.1 4.4-3.4 7 0.3-2.9 10.6-11.1 12.7-14.1 3.7-5.3 6.6-11.1 8.2-17.4 3.3-13.5-1.6-27.1-1.6-40.7-0.1-0.3 0 0.1 0 0.3 1.3 2.5 2.6 4.6 4.3 6.9-0.9-13-8.1-35-1.4-47.1 1.2 2.8 2.8 5.2 4.7 7.6-9.3-11.6 15.2-36.2 16.9-46.1 0.2 2.1 0.6 4 0.6 6.3 0 0.2 0 0.2 0 0 1.1-3.9 1-8.1 0.7-12.3 8.2 9.9 8.8 27.3 6.8 40.2v0.6c2-3.4 4.2-6.8 6.2-10.1-0.2 3.1 0.2 5.8-0.7 8.8 3.7-9.3 11.6-13 20.7-15.9-2.1 1.7-3.3 3.8-5 5.6 3.2-1.9 6.8-3.5 10.9-3.6-5.2 11.7-6.5 20.9-8 33.9 1.2-2 2.9-3.4 4-5.1-2.5 7.9-2.5 16.8-2.3 25.5 3.9-4.5 5.9-12 5.6-18.3 0-0.2 0-0.2 0 0 1 4.8 1.4 9.7 2.3 14.6 1.2-4 2.1-7.4 2.3-11.4 2.6 15.7 1.5 27.6-0.6 43 1.5-1.7 3.9-2.9 5.3-4.4-2.8 5.9-5.4 12.5-5.4 19.1 0 0 7-3.1 8.3-15.6 1.6-16 2.5-32.3-0.6-48.2-1.6-8.3-5.3-15.3-7.8-23.1-2-6.1-0.2-15.1-4.5-20.1 2.2 1.5 3.9 2.4 5.4 4.6-0.9-2.8-2.7-5.3-4.6-7.7 9.4 4.4 12.9 13.9 14.5 23.5 0.3-3.6 2.1-7 5.4-9-0.1 8.3-0.2 16.7 0.6 25 2-2.8 2.4-6.5 1.4-9.9 6.7 11.1 10.4 20.8 11.3 33.9 0.8-2.7 2.3-4 4.7-5.4-5.1 3-3 27.8-2 32.4 0-2.3 0.9-4.7 1.2-7 6.3 10.4 7.2 28.7 2 39.2 1-2 2.4-3.8 3.3-5.8-0.2 3.9 0.5 15.9-2.6 18.7 1.4-1.3 2.5-2.9 3.6-4.5-0.4 4.2-1.3 8.3-3.2 12.1-1.3 2.6-3.3 8.9-5.4 10.6 1.4-1.2 2.6-2.7 3.5-4.3-6.4 12.5 0.8 27.5-4.7 39.2 0.9-1.2 2.4-2.4 3.4-3.6 0.2 6.6-2 14.2-4 20.1 0.9-1.3 2.5-2.7 3.4-4.1 0 11.7-9.6 34.2-23.2 34.8 1.3 2.6 2.1 5.8 1.7 9-0.9-1.2-2.3-2-3.2-3.4 0.5 6.3-1.4 11.8-3.7 17.3-0.1-1.1-0.8-2.3-1-3.4 0-0.1 0-0.3 0-0.4 0.1 4.5-9.5 14.4-12.2 18.1-4.3 5.8-9 11.4-13.9 16.7-9.6 10.2-20.6 19.3-32.7 26.4-26.4 15.5-54.2 19.5-84.2 16.3 1.5 1.8 4 3.1 6.5 3.8-2.7 0.1-5.6-0.3-8.1-1.5-0.5 2.5-2.2 4.8-4.2 6.5 0-1.8 0-3.6 0-5.3 0-0.1 0-0.1 0 0-11.4 20.9-60.1 23-80.5 21.7-13-0.8-25.8-2.1-37.6-7.7 2.9-0.4 6.5-0.8 9.8-0.6-35.1-1-57-28.8-82.7-47.4 4.1 2.1 8.3 4.5 12.2 7-5.7-7.3-10.5-14.4-16.6-21.6 1.3 1.1 3.1 1.9 4.5 3-4.6-3.4-7.5-15.6-10.5-20.5-5.1-8.3-11.1-16-17.6-23.2 2.9 1.5 5.8 2.4 8.8 3.9-4.9-5.8-9.9-11.5-10.6-19.1 1.2 2.1 3 3.7 4.4 5.8-0.1-22.6-12.3-43.1-11.3-65.9 0.3 1.5 1.4 3.8 2.3 5.9 0.2-9.8 1.4-18.2-2.6-27.4 1.5 1.7 3.5 2.7 5 4.4-0.1-9.4-1.2-18.7-1.5-28.1-0.2-8.5 2.4-16.7 2-25.1 0.5 1.1 1.8 2.5 2.2 3.4-0.5-1 2.5-10.2 2.7-12.2 0.8-8.8 1-16 3.5-24.9 2.1-7.7 5.1-15 2.7-23.5 1.1 1.6 2.9 2.9 4 4.8 0.1-9.2-3.4-17.6-2.9-27 0.3-6.5 3.7-12.3 2.5-18.7 0.5 0.9 1.2 1.5 1.8 2.3-0.9-4.3-0.7-8.6 0.7-12.7 0-0.2 0-0.2 0 0 0.1 1 0.6 1.8 0.8 2.8 0 0 0 0.7 0 0.3-1.1-7.1 9.4-14.5 10.5-21.7 4.1 18.8-0.3 41.8-0.3 61C-4.9-44.4-5.8-24.5 0 0" style="fill-rule:nonzero;fill:#0a0d0b"/></g><g transform="translate(259.5015,311.5068)" id="g412"><path id="path414" d="m0 0c4.5 18.8 2.5 30.5 6.5 50.5 1.9 9.7 0.5 24 6.3 32.4 0-6-0.3-10.7 4-15.2 0.1 4.2 0.6 8.8 2.7 12.9-2.7-5.3 2.1-12 3-17.2 0.9-5.2 0.3-10.4-0.7-15.6-2.2-10.8-6.6-21.9-12.4-31.3 3.4 5.5 9.5 9.3 12.8 15.2 3.6 6.3 5.8 13.3 7.2 20.4 3.1 15.3-0.8 31.1 2.3 46.2 0-3.7 0.1-7.3 1.6-10.6 0.3 3.6-0.3 7.5-0.3 11.2v0.4c2-6.5 6.7-14 12.1-17.6-5.8 4-5.5 18.6-3.5 24.4-1.4-4 13.6-21.7 15.8-25.8 3.9-7.2 7.4-13 13-19.3 11.1-12.6 23.5-23 41.4-20.9-25.1 0.2-44.9 39.4-44.7 61 2.4-5 5.3-10.1 8.5-14.5-0.3 1.6-0.2 4.3-0.5 5.5 5.1-28.3 35.8-42.9 53.8-61.8-0.4 1.2-1 3.8-1.7 5.2 3.5-4.4 8.3-8.1 13.6-10-1.2 1.5-1.8 3.4-2.8 4.7 20-13.6 53.1-10.5 69.3-29.3-0.9 3.3-2 6.1-4.5 8.7 3.1-2.9 7.6-4.9 12.1-4.6-1.3 1.4-2.2 3.3-3.5 4.5 8-1.4 17-8.7 20.2-16.2 0.4 10.4 0.2 21.1-4.8 30.2 2.2-1.8 4.4-2.9 6.2-5.2-3 6-5.4 12-4.7 19.1 0.6-1.7 1.7-3.6 2.3-5.2 0.4 7.2-0.6 13.9-3.6 20.2 6.5-8.4 15.7-12.2 24.8-16.7-1.6 2.1-3.1 4.4-3.4 7 0.3-2.9 10.6-11.1 12.7-14.1 3.7-5.3 6.6-11.1 8.2-17.4 3.3-13.5-1.6-27.1-1.6-40.7-0.1-0.3 0 0.1 0 0.3 1.3 2.5 2.6 4.6 4.3 6.9-0.9-13-8.1-35-1.4-47.1 1.2 2.8 2.8 5.2 4.7 7.6-9.3-11.6 15.2-36.2 16.9-46.1 0.2 2.1 0.6 4 0.6 6.3 0 0.2 0 0.2 0 0 1.1-3.9 1-8.1 0.7-12.3 8.2 9.9 8.8 27.3 6.8 40.2v0.6c2-3.4 4.2-6.8 6.2-10.1-0.2 3.1 0.2 5.8-0.7 8.8 3.7-9.3 11.6-13 20.7-15.9-2.1 1.7-3.3 3.8-5 5.6 3.2-1.9 6.8-3.5 10.9-3.6-5.2 11.7-6.5 20.9-8 33.9 1.2-2 2.9-3.4 4-5.1-2.5 7.9-2.5 16.8-2.3 25.5 3.9-4.5 5.9-12 5.6-18.3 0-0.2 0-0.2 0 0 1 4.8 1.4 9.7 2.3 14.6 1.2-4 2.1-7.4 2.3-11.4 2.6 15.7 1.5 27.6-0.6 43 1.5-1.7 3.9-2.9 5.3-4.4-2.8 5.9-5.4 12.5-5.4 19.1 0 0 7-3.1 8.3-15.6 1.6-16 2.5-32.3-0.6-48.2-1.6-8.3-5.3-15.3-7.8-23.1-2-6.1-0.2-15.1-4.5-20.1 2.2 1.5 3.9 2.4 5.4 4.6-0.9-2.8-2.7-5.3-4.6-7.7 9.4 4.4 12.9 13.9 14.5 23.5 0.3-3.6 2.1-7 5.4-9-0.1 8.3-0.2 16.7 0.6 25 2-2.8 2.4-6.5 1.4-9.9 6.7 11.1 10.4 20.8 11.3 33.9 0.8-2.7 2.3-4 4.7-5.4-5.1 3-3 27.8-2 32.4 0-2.3 0.9-4.7 1.2-7 6.3 10.4 7.2 28.7 2 39.2 1-2 2.4-3.8 3.3-5.8-0.2 3.9 0.5 15.9-2.6 18.7 1.4-1.3 2.5-2.9 3.6-4.5-0.4 4.2-1.3 8.3-3.2 12.1-1.3 2.6-3.3 8.9-5.4 10.6 1.4-1.2 2.6-2.7 3.5-4.3-6.4 12.5 0.8 27.5-4.7 39.2 0.9-1.2 2.4-2.4 3.4-3.6 0.2 6.6-2 14.2-4 20.1 0.9-1.3 2.5-2.7 3.4-4.1 0 11.7-9.6 34.2-23.2 34.8 1.3 2.6 2.1 5.8 1.7 9-0.9-1.2-2.3-2-3.2-3.4 0.5 6.3-1.4 11.8-3.7 17.3-0.1-1.1-0.8-2.3-1-3.4 0-0.1 0-0.3 0-0.4 0.1 4.5-9.5 14.4-12.2 18.1-4.3 5.8-9 11.4-13.9 16.7-9.6 10.2-20.6 19.3-32.7 26.4-26.4 15.5-54.2 19.5-84.2 16.3 1.5 1.8 4 3.1 6.5 3.8-2.7 0.1-5.6-0.3-8.1-1.5-0.5 2.5-2.2 4.8-4.2 6.5 0-1.8 0-3.6 0-5.3 0-0.1 0-0.1 0 0-11.4 20.9-60.1 23-80.5 21.7-13-0.8-25.8-2.1-37.6-7.7 2.9-0.4 6.5-0.8 9.8-0.6-35.1-1-57-28.8-82.7-47.4 4.1 2.1 8.3 4.5 12.2 7-5.7-7.3-10.5-14.4-16.6-21.6 1.3 1.1 3.1 1.9 4.5 3-4.6-3.4-7.5-15.6-10.5-20.5-5.1-8.3-11.1-16-17.6-23.2 2.9 1.5 5.8 2.4 8.8 3.9-4.9-5.8-9.9-11.5-10.6-19.1 1.2 2.1 3 3.7 4.4 5.8-0.1-22.6-12.3-43.1-11.3-65.9 0.3 1.5 1.4 3.8 2.3 5.9 0.2-9.8 1.4-18.2-2.6-27.4 1.5 1.7 3.5 2.7 5 4.4-0.1-9.4-1.2-18.7-1.5-28.1-0.2-8.5 2.4-16.7 2-25.1 0.5 1.1 1.8 2.5 2.2 3.4-0.5-1 2.5-10.2 2.7-12.2 0.8-8.8 1-16 3.5-24.9 2.1-7.7 5.1-15 2.7-23.5 1.1 1.6 2.9 2.9 4 4.8 0.1-9.2-3.4-17.6-2.9-27 0.3-6.5 3.7-12.3 2.5-18.7 0.5 0.9 1.2 1.5 1.8 2.3-0.9-4.3-0.7-8.6 0.7-12.7 0-0.2 0-0.2 0 0 0.1 1 0.6 1.8 0.8 2.8 0 0 0 0.7 0 0.3-1.1-7.1 9.4-14.5 10.5-21.7 4.1 18.8-0.3 41.8-0.3 61C-4.9-44.4-5.8-24.5 0 0Z" style="fill:none;stroke-miterlimit:10;stroke-width:3;stroke:#000"/></g><g id="g416"><g id="g418"/><g id="g430"><g id="g428" clip-path="url(#clipPath422)" opacity="1"><g id="g426" transform="translate(594.582,232.6475)"><path id="path424" d="m0 0c-1.6-6.1-0.1-14.5-4.3-19.3 2.2 1.5 3.9 2.4 5.4 4.6-0.9-2.8-2.7-5.3-4.6-7.7 9.4 4.4 12.9 13.9 14.5 23.5 0.3-3.6 2.1-7 5.4-9-0.1 8.3-0.2 16.7 0.6 25 2-2.8 2.4-6.5 1.4-9.9 2 6.8 8.1 12.3 8.8 19.6 0.6 6.4-2.8 12.6-3.4 18.9 0.3-3 0.3-7.2 0-10.5-0.6 2.8-1 5.7-0.9 8.6 0-4-0.3-10.3-1-15-0.9 4.3-0.4 10 0 14.5-0.4-4.5-1.8-9.7-3.3-14.3-0.5 4.5-0.2 9.4 0 14-0.5-6-2.2-12.7-5.7-17.7 0 5.6-0.4 11.1-0.5 16.6-0.5-3.2-0.5-6.8-1.3-10.1-0.1 3.6-0.2 7.1-1.2 10.4C9.6 36.1 9.3 30.1 8.1 23.9 6.5 15.6 2.8 8.6 0.2 0.8 0.2 0.5 0.1 0.3 0 0" class="s2"/></g></g></g></g><g id="g432"><g id="g434"/><g id="g446"><g id="g444" clip-path="url(#clipPath438)" opacity="1"><g id="g442" transform="translate(526.7803,260.6719)"><path id="path440" d="m0 0c-0.9-4.6 4.3-15.4 3-18.4 1.2 2.7 2.8 5.2 4.7 7.6-9.3-11.6 15.2-36.2 16.9-46.1 0.2 2.1 0.6 4 0.6 6.3 0 0.2 0 0.2 0 0 1.1-3.9 0.7-8.1 0.5-12.3 8.2 9.9 8.5 27.3 6.5 40.2v0.6c2-3.4 4.5-6.8 6.4-10.1-0.2 3.1 0.3 5.8-0.5 8.8 3.7-9.3 11.7-13 20.8-15.9-2.1 1.7-3.3 3.8-5 5.6 3.2-1.9 6.9-3.5 10.9-3.6-4.8 0.1-7.9 30.1-8 33.9 0.8-1.2 2-2.1 2.9-3.1-1.8 4.4-3.2 9.6-3.6 14.3-0.9-2.6-1.5-5.5-2-8.1C53.4 2.7 52.7 5.7 51.9 8.8 51.5 6.7 51.6 4.3 51.3 2.3 50.7 5.9 48.1 10.1 48 13.6 48.1 9.3 49.1 5.3 49.2 0.9 49.2 0.7 49.2 0.7 49.2 0.9 46.6 6.2 43.8 10.9 42.6 16.7 43.7 11.3 44.4 3.4 43.6-2.7 41 3.3 37.4 8.6 36.2 15.2 37.5 9.1 37.6 2.3 37.8-4 33.9 1.5 31.4 9.3 31.9 15.7 31.9 9.7 31.2 3.9 31.2-2.1 28.2 3.9 28.4 11.7 28.6 18.6 28.6 18.4 28.6 18.2 28.6 18 28.2 12.3 25.5 6.7 23.8 1.4 22.5 7.2 23.1 15 23.6 21.2 19.9 13.4 14.2 6.3 8.3 0.4c3.4 6.2 7.3 12.6 8.3 19.9 0 0.2 0 0.2 0 0C14.3 13.3 9.4 6.1 3.9 1.1 6.3 5.7 7.8 10.8 7.9 16.1 6.2 10.1 1.2 6 0 0" class="s2"/></g></g></g></g><g id="g448"><g id="g450"/><g id="g462"><g id="g460" clip-path="url(#clipPath454)" opacity="1"><g id="g458" transform="translate(431.0264,355.9575)"><path id="path456" d="m0 0c5.8-3.3 12-8.8 15.9-14.5-6.5 2.9-13 7.2-19.8 9.2 8.1-4.3 14.8-8.2 19.8-16-5.2 2.9-10.5 6.9-15 11.1 3.8-2.9 7.7-9.4 9.9-15.2-4.1 2.2-7.4 4.4-10.4 8.2 6.5-6.6 33.1-18.5 35.1-26.1-0.9 3.3-2 6.1-4.5 8.7 3.1-2.9 7.6-4.9 12.1-4.6-1.3 1.4-2.2 3.3-3.5 4.5 8-1.4 17-8.7 20.2-16.2 0.4 10.4 0.2 21.1-4.8 30.2 2.2-1.8 4.4-2.9 6.2-5.2-3 6-5.4 12-4.7 19.1 0.6-1.7 1.7-3.6 2.3-5.2 0.4 7.2-0.6 13.9-3.6 20.2 6.5-8.4 15.7-12.2 24.8-16.7-1.6 2.1-3.1 4.4-3.4 7 0.8-7.4 19.9-22.4 25.3-27.4-1.7 2.4-3.1 5.5-4.6 7.9 4.8-3 10.1-6.2 13.2-10.9 0.4 5.1-1.3 9.3-3.6 13.5 5.8-5 14.5-9.1 16.3-16.9 0-0.3 0-0.3 0 0 0.2 7.6 0.7 16.3-2.4 22.4 2.4-3 5.1-6.4 7-9.6 1.2 6.5-0.6 13.1-3.6 18.4 7.4-5.5 19-14.5 19.3-24.4-1 8.1-1.1 16.5-4.6 23.7 6.3-5.9 15.5-17 14.6-26.1 0 0.2 0 0.4 0 0.5-1.5 6-3.3 12.2-3.7 18.4 0 0.2 0 0.2 0 0 1.7-4 4.7-7.8 5.7-12.2 0.6 14.9-6.9 27.3-13 40.2 0 0.3-0.1 0.4-0.3 0.6-0.1-0.3 0-0.5 0.3-0.8 3.7-5.1 7.9-10.6 11-16.2-2.8 10.6-8.6 21.3-16.1 30 6.7-10 18.5-15.8 23.7-27-2.2 8.2-5.7 16.8-10.5 23.3 6.7-6.8 18.1-20.7 18.1-30.6v-0.5c-2 10.6-8.7 19.1-10.8 29.2 0 0.2-0.1 0.2-0.1 0 7-10.9 14.3-21.5 17.6-34 1.2 15.1-3.5 30-9 43.6-0.2 0.2-0.2 0.1 0-0.3 6-9.6 9.8-19.4 12.5-30-1.5 9.5-4 18.9-3.6 28.7 2.9-13.1 9.4-27.4 9.9-39.9 0.1 9.9 1.6 19.7 0.6 29.7 3.5-11.5 4.7-25.1 3.3-37.3 0-0.2 0.2-0.4 0.2-0.6 1 9.7 1.5 19.8 1.5 29.6v0.6c0-6 1.2-12.6 2.2-18.4 1.9 10.6 7.5 37.5 0.5 47.2 0.9-1.2 2.4-2.4 3.4-3.6 0.2 6.6-2.1 14.2-4 20.1 0.9-1.3 2.5-2.7 3.4-4.1 0 11.7-9.6 34.2-23.2 34.8 1.3 2.6 2.1 5.8 1.7 9-0.9-1.2-2.3-2-3.2-3.4 0.5 6.3-1.4 11.8-3.7 17.3-0.1-1.1-0.8-2.3-1-3.4 0-0.1 0-0.3 0-0.4 0.2 14.7-22 20.9-27.4 30.5-0.1 0.3-0.3 0.5-0.5 0.7 4.5-3.9 9.4-7.7 13.5-12.1-6 3.1-12.2 6-18.9 6.8 9.2-6.2 18.1-14.4 23.6-24-3.7 3.3-7.9 6.1-11.7 9.3 3.8-7 9.9-13.3 14.8-20 0 0 0.6-0.7 0.3-0.3-6.4 6.2-13.6 12.7-21.1 17.4 7.7-11.3 15.9-21.4 19.6-33.9-5.1 8.6-14.2 14.4-23.6 17.4 6-8.1 13.8-15.4 19.3-24.3-9.9 12.4-21.5 22.5-35.8 28.8 11.1-11.3 22-22.2 28.5-36.7-6.8 10-20.1 19.8-31.4 23.3 8.6-8.8 19-19.7 22.9-30.5-5.3 7.9-14.5 13.8-22.5 17.4 6.6-6.8 11.4-16.1 15.4-24.4-8.5 16.3-22.7 13.8-34.5 24.2 0.1-0.1 1-0.8 0.6-1 8.8-5.6 15.6-11.9 20.9-21.4-7.1 3.8-15.3 8.6-21.4 13.9-0.1 0.1-0.1 0.1 0 0 8.5-8.5 16.7-18 22.7-28.2-7.9 7.2-18.5 12.8-25.6 20.7 8.9-5.9 18.8-18.1 22.1-27.8C109.3 45.3 97.7 50.3 88 58.3c4.9-4.5 8.9-9.9 11.7-16.1-6 9.8-16.9 12.5-25.6 19.2 4.8-3.8 9.3-8.2 12.6-13.4 1.6-2.5 3.2-10.3 5.4-11.8C81.2 43.9 69.3 54.2 55.5 55.4 62.3 49.2 69.8 43.4 76.8 37.2 65.6 41.4 53.5 47.9 41.1 48 48.7 38.7 58.9 33 65.8 23.1 52.7 32.7 39.8 30.7 26.4 37 34.3 33.3 42.8 28.5 49.2 22.3 39 27.1 27.1 28.4 16.6 31.7 25.5 28.1 36 19.3 42.9 12 29.9 20.4 14.4 22.9-0.3 26.3 8.9 21.8 18.5 17.2 24.8 8.4 16.7 12.8 7.7 14.2-0.9 17.1 8.5 10.3 19.2 5.3 26.5-4.2 18.2 0 9.2 4.1 0.7 7.6 10.3 3.5 16.7-6.2 22.9-14.3 15.7-9.7 7.7-4.2 0 0" class="s2"/></g></g></g></g><g id="g464"><g id="g466"/><g id="g478"><g id="g476" clip-path="url(#clipPath470)" opacity="1"><g id="g474" transform="translate(268.7822,328.1021)"><path id="path472" d="m0 0c3.4 5.5 9.5 9.3 12.8 15.2 3.6 6.3 5.8 13.3 7.2 20.4 3.1 15.3-0.8 31.1 2.3 46.2 0-3.7-0.2-7.3 1.4-10.6 0.3 3.6-0.6 7.5-0.6 11.2v0.4c2-6.5 7-14 12.3-17.6-5.8 4-5.4 18.6-3.4 24.4-1.4-4 13.6-21.7 15.8-25.8 3.9-7.2 7.5-13 13-19.3 11.1-12.6 23.5-23 41.4-20.9-25.1 0.2-44.9 39.4-44.7 61 2.4-5 5.3-10.1 8.5-14.5-0.3 1.6-0.2 4.3-0.5 5.5 2.5-13.8 12.6-32.7 25.8-38.7-5 6.7-9.6 13.4-13.2 21.2 5.3-7.4 11.9-14.1 19.3-19.4-7.9 11.6-15.1 29.5-16.8 44.5 3.9-7.8 9-15.9 14.9-22.4-4.2 13-4.5 27.5-5.5 41.9 1.9-5.7 5.7-13.6 9.4-19.4-2.4 10.6-3.8 24.4-3.9 36.6 3.5-4 8.6-7.7 11.4-13.2 0.7 8.2-1.4 16.7-5.2 24.1 6.9-4.7 13.2-10.7 17.8-17.5 0.5-0.5 0.5-0.5 0 0-4.4 8.1-10.2 15.6-14.5 23.4 12.9-3.2 27.2-9.9 35.7-19.5-5.3 8.9-10.7 17.2-19 23.6 13.7-1.9 31.5-2.8 40.5-14.5-6.5 9.3-12.8 20.2-21.3 27.6 11.7-7.4 28.7-11.6 36.2-24.4 0.4 0 0.4 0.2-0.2 0.6-8.7 12.1-16.7 25.7-28.5 34.6 16.9-9.1 36.2-16.1 47.8-31.9 0-0.3 0-0.6 0-0.9-2.1 14.3-17.7 30.9-28.6 38.8 13.4-3.8 28.8-11.4 40.8-19.1-10.9 9.2-28.1 17.4-41.4 25.1 14.3 0.9 40.6-4.7 49.5-15-6.6 9.5-15.7 16.3-23.7 23.7 14.2-2.6 32-12.6 38-26.7 0-0.5 0-0.5 0 0-1.4 15.2-16.5 27.6-25.7 38 12.2-7.7 26.7-15.7 35.1-27.5-3.3 11.1-13 21.7-19.9 29.5 13.1-2.1 22.6-11.3 27.9-23-3.8 9.4-11.6 16.8-15.3 26.4 11.7-7.2 25.8-17.1 31.9-29.7 2.2 15.4-6.4 30-19.5 37-8 4.3-52.6 12.5-59.2 4.9 1.5 1.8 4 3.1 6.5 3.8-2.7 0.1-5.6-0.3-8.1-1.5-0.5 2.5-2.2 4.8-4.2 6.5 0-1.8 0-3.6 0-5.3 0-0.1 0-0.1 0 0-11.4 20.9-60.1 23-80.5 21.7-13-0.8-25.8-2.1-37.6-7.7 2.9-0.4 6.5-0.8 9.8-0.6-35.1-1-57-28.8-82.7-47.4 4.1 2.1 8.3 4.5 12.2 7-5.7-7.3-10.5-14.4-16.6-21.6 1.3 1.1 3.1 1.9 4.5 3-4.6-3.4-7.5-15.6-10.5-20.5-5.1-8.3-11.1-16-17.6-23.2 2.9 1.5 5.8 2.4 8.8 3.9-4.9-5.7-9.9-11.5-10.6-19.1 1.1 2 2.7 3.8 4.2 5.4 0.1-3.9 0.6-8.1 0.5-12.1 1.8 2.2 4 4.3 5.7 6.8-3.5-4.9-3.7-11.7-3.3-17.7 3.9 6 7.2 12.9 10.2 19.4-3.1-2.5-5.2-5.9-5.6-10 3.7 5 7.5 10.1 11.6 14.9-5.1-4-7.9-9.8-8.5-16.3 3.7 5.4 9.1 9.8 13.6 14.5-10.1-6.2-10.7-20.1-10.3-30.8 0 0.2 0 0.4 0 0.6 3 7.5 9.3 15.2 15.2 20.3-3.6-3.3-4.2-8.4-3.6-13.2 3.9 4.7 9 9.5 11.8 14.9 0.1 0.1 0.1 0.1 0 0C-5.8 102.3-2.5 89.1-3.4 81.1-2.2 86.5 1.2 91.7 4.2 96.4-1 89.1-1.1 77.9-1 69.3 1.3 73.4 3.5 78.4 5.9 82.4 0.9 76.9 2.5 68.7 1.6 61.4 1.8 63.5 2.4 64.8 2.9 66.4 1.8 60.8 7.6 55.4 7.5 51.1 7.6 55.4 8.1 59.9 10.2 64.1 7.5 58.7 12.2 52 13.1 46.9 14.1 41.7 13.5 36.5 12.4 31.3 10.3 20.5 5.8 9.4 0 0" class="s2"/></g></g></g></g><g id="g480"><g id="g482"/><g id="g494"><g id="g492" clip-path="url(#clipPath486)" opacity="1"><g id="g490" transform="translate(259.5015,311.5068)"><path id="path488" d="m0 0c3.3 13.8-2.5 28 0.5 40.7-0.6-2.6-1.7-5.2-2.3-7.8-0.1 4.1-0.1 8.3-0.1 12.4-0.4-4.7-1.4-9.5-2.3-14.1-1.4 9.5-2.1 19.2-1.4 28.9-1.8-4.7-2.8-10.5-3.2-15.6-1.1 5.4-2.1 10.7-1.7 16.4 0 0.2 0 0.2 0 0-1.3-5.8-2.3-12-3.4-17.9-0.6 4.3-0.8 8.9-0.7 13.4-1-5.4-2.6-11.1-5.3-16-1.4 5.7-2 12.1-1.7 18.3-3.1-4.9-4.6-10.2-5.7-16 0-0.2 0-0.2 0 0-1.3 7.2-1.4 18 1.3 24.1-1.5-2.5-3.8-4.7-5.6-7 0.3 2.8 0.3 5.9 0.9 8.7 0 0.2 0 0.2 0 0-2.2-6.6-5.3-13.9-8-20.3 1.5 1.7 3.5 2.7 5 4.4-0.1-9.4-1.2-18.7-1.5-28.1-0.2-8.5 2.4-16.7 2-25.1 0.5 1.1 1.8 2.5 2.2 3.4-0.5-1 2.5-10.2 2.7-12.2 0.8-8.8 1-16 3.5-24.9 2.1-7.7 5.1-15 2.7-23.5 1.1 1.6 2.9 2.9 4 4.8 0.1-9.2-3.4-17.6-2.9-27 0.3-6.5 3.7-12.3 2.5-18.7 0.5 0.9 1.2 1.5 1.8 2.3-0.9-4.3-0.7-8.6 0.7-12.7 0-0.2 0-0.2 0 0 0.1 1 0.6 1.8 0.8 2.8 0 0 0 0.7 0 0.3-1.1-7.1 9.4-14.5 10.5-21.7 4.1 18.8-0.3 41.8-0.3 61C-4.9-44.4-5.8-24.5 0 0" class="s2"/></g></g></g></g><g id="g496"><g id="g498"/><g id="g510"><g id="g508" clip-path="url(#clipPath502)" opacity="1"><g id="g506" transform="translate(353.2954,166.5313)"><path id="path504" d="m0 0c7.6 3.2 20.2 13.6 9.2 19.3-8 4.2-35.3 5.9-45.5-0.5 0.6 0.9 1.1 2.1 1.8 3.1-2.7-1.1-5.5-2.4-8-3.9 0.3 0.8 0.5 1.6 0.9 2.5-1.8-1.1-4.2-1.9-5.9-2.9 0.6 0.8 1.3 2 2.1 2.9-5-2.8-11.4-7.1-13.8-12.4 0.5 0.4 1.5 1 1.8 1.2-1.5-2-2-3.5-2.9-5.6 0.7 1.1 1.7 1.8 2.5 2.8-0.6-1.9-0.6-3.8-1-5.8 0.8 1.2 2 2.1 2.8 3.3-1-3.6-0.9-7.5-0.5-11.2 0.3 2.8 1 3.8 2.3 6 0-3.3-0.2-6.6 0.5-9.7 0.1 3.9 0.4 7.9 2.6 11.2-0.2-1.4 0.2-3 0.1-4.5 0-0.2 0-0.2 0 0 1.6 3.1 4.2 5.7 6.9 7.5-0.3-0.7-0.7-1.4-0.9-2.1 2.5 1.8 5.2 3.4 8.2 4.5-0.5-0.8-0.9-1.5-1.2-2.3 2.1 0.9 4.5 1.1 6.6 1.7-0.5-0.8-0.8-1.5-1.2-2.4 2.6 1.7 5.7 2.7 8.7 2.9-0.9-0.8-1.6-1.8-2.4-2.5 3.1 1.2 6.6 2 9.9 2.5-1.1-0.7-2.2-1.6-3.2-2.2 1.9 0.8 4.2 1 6.3 1.7-0.4-0.7-0.9-1.4-1.3-2.1 1.5 0.4 3.7 0.1 5.5 0.7-0.5-0.8-1-1.4-1.6-2.2 2.2 0.9 4.8 1.7 6.9 2.7C-3.9 3.4-4 2.5-4 1.8-2.3 2.5 0 2.5 1.7 3.6 1 2.6 0.7 1 0 0" class="s4"/></g></g></g></g><g id="g512"><g id="g514"/><g id="g526"><g id="g524" clip-path="url(#clipPath518)" opacity="1"><g id="g522" transform="translate(461.6631,160.1377)"><path id="path520" d="m0 0c-0.1 3 3.7 6.3 3.9 9.6 0.5 8.3-11 17.9-18.8 18.2 0.9-0.7 1.5-1.4 2.4-2-2.1 0.9-4.4 2-6.4 2.8 0.3-0.3 1-0.9 1.2-1.1-1.1 0.7-2.2 0.7-3.4 1.1 0.6-0.8 1-1.8 1.7-2.6-1.3 0.9-2.9 1.4-4.3 2.1 0.1-0.2 1-1.3 0.7-0.9-0.7 0.8-1.9 1.3-2.8 1.8-0.7-0.6-3.9-1.5-4.8-0.3 0.4-0.6 0.7-1.5 1.3-2.2-1.9 1.2-4 2-6.3 2 0.3-0.2 1.1-0.6 1.4-0.8-2.1 0.9-4.1 2-6.4 2 0.4-0.3 0.9-0.7 1.3-1.1-2.2 0-4.2 0.2-6.4 0.3 0.5-0.4 0.9-0.8 1.4-1.2-1.6 0.3-3.3 0.6-4.8 1.1 0.3-0.2 0.8-0.6 1.1-0.9-1.4 1.1-3.1 1.8-4.8 2.1 0.2-0.2 0.8-0.8 0.9-1-1.4 0.9-2.6 0.9-4.1 1.3 0.2-0.3 0.8-0.5 0.9-0.8-1.4 0.7-3 1.1-4.4 1.8 0.3-0.4 0.6-1.1 0.9-1.6-0.1 0-0.1 0-0.1 0.2-1.5 0.8-3 1.7-4.5 2.7-0.9-0.8-2.5-1.1-3.3-1.8-0.8 4.1-6.7 0.4-8.8-1.1 0.5 0.5 0.9 1.1 1.3 1.6 0 0-0.3 0.5-0.3 0.5-3.8 0.3-6.8-2.2-9.8-4.3 0.5 0.8 0.8 1.9 1.2 2.6-5.5-2.8-10.6-5.1-8.7-11.8 1.5-5 7.2-7.2 8.9-11.3-0.3 0.6-0.4 1.3-0.6 2 1.4-0.6 3.2-0.9 4.6-1.7-0.3 0.5-0.7 1-1.1 1.5 1.7-0.8 3.6-1.4 5.4-1.7-0.4 0.5-0.8 1.1-1.2 1.6 1.9-0.4 4-0.6 6-0.4-0.2 0.4-0.6 0.8-0.8 1.3 2.3-0.6 4.9-0.9 7.4-1.3-0.9 0.4-1.4 0.9-2.2 1.4 2.3 0.3 4.9 0.1 7-0.4-0.1 0.3-0.5 0.8-0.6 1.2 1.4-0.6 3.3-1.1 4.6-2-0.2 0.8-0.1 1.5-0.3 2.3 0.7-0.6 1.6-1 2.2-1.8-0.5 0.7-0.8 1.6-1.3 2.3 1.1-0.8 2.3-1.3 3.4-2.1-0.6 0.7-0.9 1.8-1.3 2.4 2.2-1.1 4.7-1.7 7.1-2.3-1 1-1.7 2-2.9 2.8 1.9-0.9 4-2.3 6.1-2.8-0.6 0.7-1 1.6-1.6 2.3 1.8-0.7 3.5-1.5 5.5-1.8 0.1 0 0.1 0 0 0-0.8 0.5-1.3 1.3-2 1.9 0.1 0-0.2 0.4-0.2 0.4 7.2 0.1 20.1 1.2 24.7-5.9-0.3 0.8-0.4 1.4-0.8 2.3 2-1.3 3.7-3.4 4.6-5.6 0.2 0.5 0.6 1.1 0.8 1.6 1.2-1.8 1.7-4.2 1.5-6.5 0-0.1 0-0.1 0 0 0.3 0.7 0.8 1.4 1.1 2 0.1-2.7 0.1-5.4-0.4-7.9 1.9 2.4 3.6 5 4.3 7.9-0.1-1 0.1-2.2 0.1-3.3 1.2 1.6 2.8 3.5 3.6 5.5C0 1.9 0.1 0.6 0 0 0-0.1 0-0.1 0 0" class="s4"/></g></g></g></g><g transform="translate(331.8335,197.833)" id="g528"><path id="path530" d="M0 0C0 0 7.6-20.8 23.2-21.2 43-21.7 62.2 0 62.2 0" class="s0"/></g><g transform="translate(361.3882,176.1904)" id="g532"><path id="path534" d="m0 0c-2.6-0.5-5.2-0.6-7.9-0.3-2.7 0.3-5.2 1.3-7.5 2.7-2.9 1.8-5.3 4.2-7.4 6.8-2 2.6-3.7 5.5-5.1 8.5-0.5 1.1-1.1 2.8-1.6 3.9 2.1-4.7 4.9-9.2 8.4-13 1.8-1.9 3.7-3.5 5.9-4.8 2.2-1.3 4.6-2.1 7-2.3 3.9-0.3 7.7 0.3 11.4 1.3 3.7 1 7.2 2.5 10.7 4.4 5.7 3.2 11 7.1 15.8 11.5 0.9 0.8 2.2 2 3 2.9C28.6 17.1 24.1 13 19.3 9.3 16.4 7.2 13.4 5.3 10.3 3.6 7.1 2 3.7 0.7 0 0" class="s2"/></g><g transform="translate(333,192.499)" id="g536"><path id="path538" d="m0 0c0 0-7.8 2.3-7.5 10.2 0.4 11.2 9.9 17.8 9.9 17.8L-8.7 23" class="s0"/></g><g transform="translate(328.9951,211.5488)" id="g540"><path id="path542" d="m0 0c-1.4-2.5-2.4-5.2-2.8-8.3-0.2-1.9 0-3.8 0.8-5.5 0.8-1.7 2.2-3.1 3.8-4.2 0.6-0.4 1.5-1 2.2-1.1-2.9 0.9-5.7 2.8-7.1 5.8-0.7 1.5-1 3.1-1 4.7 0 1.6 0.2 3.2 0.5 4.7 0.6 2.5 1.6 4.7 3 6.7 1.4 2 3 3.7 4.9 5.3 0.5 0.4 1.1 0.9 1.7 1.3L6.6 8.4-2.4 4.9C-3 4.6-4 4.3-4.7 4L4.9 8.8 6.2 9.5 6.7 8.5C4 6.2 1.8 3.2 0 0" class="s2"/></g><g transform="translate(387.8335,189.999)" id="g544"><path id="path546" d="M0 0C0 0 18.3 0.7 20.3 13.8 22.2 26 8 32.7 8 32.7L20.7 29.5" class="s0"/></g><g transform="translate(408.9805,209.291)" id="g548"><path id="path550" d="m0 0c0.5-2.2 0.4-4.5-0.1-6.5-0.5-2.1-1.6-4.2-3.1-5.8-1.9-2.1-4.3-3.6-6.8-4.6-2.5-1-5.2-1.7-7.8-2-1-0.1-2.4-0.2-3.4-0.3 4.2 0.4 8.3 1.5 11.9 3.6 1.8 1 3.4 2.3 4.7 3.8 1.3 1.6 2.1 3.4 2.5 5.3 0.6 3.1 0.3 6.1-0.9 8.8-1.2 2.7-3.1 5.2-5.5 7.2-1.5 1.3-3.2 2.5-5 3.5l0.3 0.9 9.3-2.7c0.9-0.3 2.3-0.7 3.2-0.9l-12.8 2.7 0.3 0.8c0.5-0.2 1-0.5 1.5-0.7 2.5-1.4 4.9-3.1 7-5.2C-2.4 5.7-0.7 3.1 0 0" class="s2"/></g><g transform="translate(377.6426,284.377)" id="g552"><path id="path554" d="m0 0c0 0-6.9-16.5-5.7-16.7 1.2-0.2 12 1.2 12 1.2z" class="s5"/></g><g transform="translate(367.8867,120.4541)" id="g556"><path id="path558" d="m0 0c0 0 3.3-1.3 11.5 0 8.2 1.3 13.7 3.3 13.7 3.3 0 0-12.2-13.9-15.9-11.5C5.5-5.8 0 0 0 0" class="s5"/></g><g id="g560"><g id="g562"/><g id="g574"><g id="g572" clip-path="url(#clipPath566)" opacity="1"><g id="g570" transform="translate(323.9863,308.0615)"><path id="path568" d="m0 0c1.2-2.7 1.3-5.8 1.2-9-0.3 0.5-0.8 1.2-1 1.7 0.1-0.7 0-1.3 0.1-2-0.6 0.8-1.4 1.6-2.2 2.1 0.3-0.2 0.6-1.1 0.6-1.5-3.1 2.5-8.2 3.1-12.1 4-6.1 1.3-12.3 2-18.5 1.9-17.8-0.2-26-7.8-26-7.8 1.2 1.1 1.3 7.2 1.9 8.8 1.7 5.2 4.7 8.7 9.4 11.6 0 0 0 0.1 0 0-0.7-0.8-1.2-1.7-1.8-2.6 1.6 1.2 3.4 2.5 5.3 3.1-0.9-0.7-1.5-1.7-2.2-2.6 1.5 0.8 3.1 1.5 4.7 2.1-0.7-0.6-1.2-1.5-1.9-2.1 13.8 3 25.7 2.2 34.7-3.6C-8.4 5-8.6 5.8-9.1 6.5-6.8 5.8-4.8 4-2.9 2.6-3.2 3.2-3.5 4.1-4 4.7-2 3.4-0.8 1.8 0 0" class="s2"/></g></g></g></g><g transform="translate(284.875,283.625)" id="g576"><path id="path578" d="M0 0C0 0 7.4 7.7 20.9 8 39.5 8.4 49-2.2 49-2.2 49-2.2 36.9-6.4 20.6-5.9 6.3-5.4 0 0 0 0" class="s6"/></g></g></g><g id="g580"><g clip-path="url(#clipPath586)" id="g582"><g transform="translate(321.0024,290.9229)" id="g588"><path id="path590" d="m0 0c-2.8 5.7-9.6 8-15.2 5.3-5.6-2.8-7.9-9.6-5.1-15.2 2.8-5.7 9.6-8 15.2-5.3C0.5-12.5 2.8-5.7 0 0" class="s7"/></g><g transform="translate(318.5713,289.8877)" id="g592"><path id="path594" d="m0 0c-2.1 4.3-7.3 6.1-11.6 4-4.3-2.1-6-7.3-3.9-11.7 2.1-4.3 7.3-6.1 11.6-4C0.4-9.6 2.1-4.3 0 0" class="s2"/></g><g transform="translate(304.5078,289.5176)" id="g596"><path id="path598" d="m0 0c-0.5 1-1.6 1.4-2.5 0.9-0.9-0.5-1.3-1.6-0.8-2.6 0.5-1 1.6-1.4 2.5-0.9C0.1-2.1 0.5-1 0 0" class="s6"/></g></g></g><g id="g600"><g clip-path="url(#clipPath606)" id="g602"><g transform="translate(407.625,280.125)" id="g608"><path id="path610" d="m0 0c0 0 10.1 10 25.6 10.5 15.5 0.5 27-8.7 27-8.7 0 0-11.1-3.6-26-4C13-2.6 0 0 0 0" class="s6"/></g></g></g><g id="g612"><g clip-path="url(#clipPath618)" id="g614"><g transform="translate(452.2959,288.2754)" id="g620"><path id="path622" d="m0 0c-2.4 5.8-9.1 8.6-14.8 6.2-5.8-2.4-8.4-9.1-6-14.9 2.4-5.8 9.1-8.6 14.8-6.2C-0.3-12.5 2.4-5.8 0 0" class="s7"/></g><g transform="translate(449.8047,287.3955)" id="g624"><path id="path626" d="m0 0c-1.9 4.5-6.9 6.6-11.3 4.8-4.4-1.8-6.5-6.9-4.6-11.4 1.9-4.5 6.9-6.6 11.4-4.8C-0.2-9.6 1.9-4.5 0 0" class="s2"/></g><g transform="translate(435.7461,287.9121)" id="g628"><path id="path630" d="M0 0C-0.4 1-1.5 1.5-2.5 1.1-3.4 0.7-3.9-0.4-3.4-1.4-3-2.4-1.9-2.9-1-2.5 0-2.1 0.4-1 0 0" class="s6"/></g></g></g><g id="g632"><g clip-path="url(#clipPath638)" id="g634"><g transform="translate(283.5,283.083)" id="g640"><path id="path642" d="M0 0C0 0 9.9 9.4 25.6 9.3 41.3 9.1 51-2.1 51-2.1" class="s9"/></g><g transform="translate(300.125,277.708)" id="g644"><path id="path646" d="M0 0C6.4-0.8 14.3-0.8 20.8 0.7" class="s9"/></g><g transform="translate(406,279.25)" id="g648"><path id="path650" d="M0 0C0 0 9.5 11.2 27 12.1 44.9 13 55.8 1.4 55.8 1.4" class="s9"/></g><g transform="translate(428.75,277.3125)" id="g652"><path id="path654" d="M0 0C8.2-0.5 17 0.2 24.8 2.4" class="s9"/></g><g transform="translate(282.75,287.583)" id="g656"><path id="path658" d="M0 0C14.9 11.2 37 12.7 51.7-3.1" class="s10"/></g><g transform="translate(409.583,286.75)" id="g660"><path id="path662" d="M0 0C15.6 11.2 37.5 11.2 52-2.3" class="s10"/></g><g transform="translate(313.5,164.833)" id="g664"><path id="path666" d="m0 0c0 0 23-0.3 27-1.3 4-1 16.7-8.2 32.3-8.3C75-9.8 88.7-2 100.3-1 112 0 129-2.2 129-2.2c0 0-21-32-71.3-32.2C18-34.5 0 0 0 0" class="s6"/></g><g transform="translate(313.5,164.833)" id="g668"><path id="path670" d="m0 0c0 0 23-0.3 27-1.3 4-1 16.7-8.2 32.3-8.3C75-9.8 88.7-2 100.3-1 112 0 129-2.2 129-2.2c0 0-21-32-71.3-32.2C18-34.5 0 0 0 0Z" class="s9"/></g><g transform="translate(333.3335,164)" id="g672"><path id="path674" d="M0 0C0 0-2.7-1.5-2.5-3-2.3-4.5 0-15.2 2.7-17.3 5.3-19.5 22-26.8 22-26.8l-18.5 5.5 0.7-2.8-7.5 5.5-10.5 10.7-4.6 6.1-1.4 2.8z" class="s2"/></g><g transform="translate(424.75,164.125)" id="g676"><path id="path678" d="m0 0c0 0 3.5-1.2 4.3-3.6 0.8-2.4 1-6 1-6l-10.9-7.5 11 5-1.5-3.2 7.4 6.3 5.5 5.8 0.9 2-8.5 0.7z" class="s2"/></g></g></g></g></svg>